<svg width="255" height="86" viewBox="0 0 255 86" fill="none" xmlns="http://www.w3.org/2000/svg">
<mask id="path-1-outside-1_384_356" maskUnits="userSpaceOnUse" x="-0.391602" y="-0.294983" width="255" height="86" fill="black">
<rect fill="white" x="-0.391602" y="-0.294983" width="255" height="86"/>
<path d="M30.7684 68.845C19.4634 68.845 9.3934 65.045 1.7934 58.015L9.8684 48.42C16.0434 53.74 23.0734 56.97 31.3384 56.97C38.3684 56.97 41.9784 53.74 41.9784 49.655C41.9784 45 38.1784 43.575 28.2034 41.295C14.4284 38.16 4.6434 34.265 4.6434 21.63C4.6434 9.56501 14.5234 1.30001 28.7734 1.30001C39.4134 1.30001 47.6784 4.62501 54.3284 10.325L47.0134 20.395C41.2184 15.74 34.6634 13.175 28.3934 13.175C22.4084 13.175 18.7984 16.31 18.7984 20.205C18.7984 24.955 22.6934 26.475 32.7634 28.755C46.8234 31.89 56.1334 36.07 56.1334 48.135C56.1334 60.58 46.7284 68.845 30.7684 68.845ZM91.3606 17.45C104.471 17.45 113.971 28.09 113.971 43.1C113.971 58.205 104.471 68.845 91.3606 68.845C84.5206 68.845 78.8206 65.9 74.9256 60.77V84.045H61.0556V18.59H74.9256V25.43C78.8206 20.395 84.5206 17.45 91.3606 17.45ZM87.3706 57.16C95.0656 57.16 100.481 51.365 100.481 43.1C100.481 34.93 95.0656 29.135 87.3706 29.135C80.6256 29.135 75.6856 34.075 74.9256 41.2V45C75.6856 52.22 80.6256 57.16 87.3706 57.16ZM140.965 17.45C153.79 17.45 162.53 25.525 162.53 38.35V67.705H149.135V62.765C145.62 66.755 140.015 68.845 134.695 68.845C124.245 68.845 116.17 62.575 116.17 53.17C116.17 43.48 125.195 36.83 136.595 36.83C140.585 36.83 144.955 37.685 149.135 39.3V38.35C149.135 33.125 145.905 28.565 137.83 28.565C133.27 28.565 128.995 30.085 125.1 32.08L120.445 22.865C127.38 19.35 134.125 17.45 140.965 17.45ZM137.83 59.25C143.15 59.25 148.185 56.78 149.135 52.22V47.66C146 46.52 142.39 45.855 138.59 45.855C133.555 45.855 129.565 48.8 129.565 52.79C129.565 56.78 133.08 59.25 137.83 59.25ZM183.341 27.71C186.571 21.345 192.651 17.45 200.156 17.45V29.135C189.896 29.135 183.341 35.025 183.341 44.24V67.705H169.471V18.59H183.341V27.71ZM251.192 18.59L232.097 40.345L251.002 67.705H235.042L222.882 49.275L216.992 55.64V67.705H203.122V1.30001H216.992V39.775L235.232 18.59H251.192Z"/>
</mask>
<path d="M30.7684 68.845C19.4634 68.845 9.3934 65.045 1.7934 58.015L9.8684 48.42C16.0434 53.74 23.0734 56.97 31.3384 56.97C38.3684 56.97 41.9784 53.74 41.9784 49.655C41.9784 45 38.1784 43.575 28.2034 41.295C14.4284 38.16 4.6434 34.265 4.6434 21.63C4.6434 9.56501 14.5234 1.30001 28.7734 1.30001C39.4134 1.30001 47.6784 4.62501 54.3284 10.325L47.0134 20.395C41.2184 15.74 34.6634 13.175 28.3934 13.175C22.4084 13.175 18.7984 16.31 18.7984 20.205C18.7984 24.955 22.6934 26.475 32.7634 28.755C46.8234 31.89 56.1334 36.07 56.1334 48.135C56.1334 60.58 46.7284 68.845 30.7684 68.845ZM91.3606 17.45C104.471 17.45 113.971 28.09 113.971 43.1C113.971 58.205 104.471 68.845 91.3606 68.845C84.5206 68.845 78.8206 65.9 74.9256 60.77V84.045H61.0556V18.59H74.9256V25.43C78.8206 20.395 84.5206 17.45 91.3606 17.45ZM87.3706 57.16C95.0656 57.16 100.481 51.365 100.481 43.1C100.481 34.93 95.0656 29.135 87.3706 29.135C80.6256 29.135 75.6856 34.075 74.9256 41.2V45C75.6856 52.22 80.6256 57.16 87.3706 57.16ZM140.965 17.45C153.79 17.45 162.53 25.525 162.53 38.35V67.705H149.135V62.765C145.62 66.755 140.015 68.845 134.695 68.845C124.245 68.845 116.17 62.575 116.17 53.17C116.17 43.48 125.195 36.83 136.595 36.83C140.585 36.83 144.955 37.685 149.135 39.3V38.35C149.135 33.125 145.905 28.565 137.83 28.565C133.27 28.565 128.995 30.085 125.1 32.08L120.445 22.865C127.38 19.35 134.125 17.45 140.965 17.45ZM137.83 59.25C143.15 59.25 148.185 56.78 149.135 52.22V47.66C146 46.52 142.39 45.855 138.59 45.855C133.555 45.855 129.565 48.8 129.565 52.79C129.565 56.78 133.08 59.25 137.83 59.25ZM183.341 27.71C186.571 21.345 192.651 17.45 200.156 17.45V29.135C189.896 29.135 183.341 35.025 183.341 44.24V67.705H169.471V18.59H183.341V27.71ZM251.192 18.59L232.097 40.345L251.002 67.705H235.042L222.882 49.275L216.992 55.64V67.705H203.122V1.30001H216.992V39.775L235.232 18.59H251.192Z" fill="url(#paint0_linear_384_356)" style="mix-blend-mode:hard-light"/>
<path d="M1.7934 58.015L0.798759 57.1779L2.66987e-05 58.127L0.910644 58.9693L1.7934 58.015ZM9.8684 48.42L10.7169 47.4351L9.72057 46.5767L8.87376 47.5829L9.8684 48.42ZM28.2034 41.295L28.4931 40.0277L28.4919 40.0274L28.2034 41.295ZM54.3284 10.325L55.3802 11.089L56.0851 10.1186L55.1744 9.33798L54.3284 10.325ZM47.0134 20.395L46.1993 21.4085L47.2632 22.2631L48.0652 21.159L47.0134 20.395ZM32.7634 28.755L32.4763 30.0229L32.4805 30.0239L32.7634 28.755ZM30.7684 68.845V67.545C19.7627 67.545 10.0162 63.8502 2.67615 57.0607L1.7934 58.015L0.910644 58.9693C8.77064 66.2398 19.1641 70.145 30.7684 70.145V68.845ZM1.7934 58.015L2.78804 58.8521L10.863 49.2571L9.8684 48.42L8.87376 47.5829L0.798759 57.1779L1.7934 58.015ZM9.8684 48.42L9.01988 49.4049C15.3774 54.8822 22.698 58.27 31.3384 58.27V56.97V55.67C23.4488 55.67 16.7094 52.5979 10.7169 47.4351L9.8684 48.42ZM31.3384 56.97V58.27C35.0358 58.27 37.9964 57.4223 40.0679 55.8894C42.1718 54.3325 43.2784 52.1203 43.2784 49.655H41.9784H40.6784C40.6784 51.2747 39.98 52.72 38.5214 53.7994C37.0304 54.9027 34.671 55.67 31.3384 55.67V56.97ZM41.9784 49.655H43.2784C43.2784 48.3073 43.0008 47.0938 42.3329 46.0192C41.6703 44.9534 40.69 44.1312 39.4639 43.4486C37.0749 42.1185 33.4381 41.158 28.4931 40.0277L28.2034 41.295L27.9137 42.5623C32.9437 43.712 36.1944 44.6041 38.1991 45.7202C39.1699 46.2607 39.763 46.81 40.1247 47.3919C40.481 47.965 40.6784 48.6752 40.6784 49.655H41.9784ZM28.2034 41.295L28.4919 40.0274C21.6014 38.4592 15.9439 36.7442 12.0079 33.9633C8.1858 31.2627 5.9434 27.5268 5.9434 21.63H4.6434H3.3434C3.3434 28.3683 5.9935 32.8973 10.5076 36.0867C14.9079 39.1958 21.0304 40.9958 27.9149 42.5626L28.2034 41.295ZM4.6434 21.63H5.9434C5.9434 15.98 8.2448 11.2622 12.2013 7.93567C16.1751 4.5945 21.893 2.60001 28.7734 2.60001V1.30001V1.12653e-05C21.4038 1.12653e-05 15.0567 2.13803 10.528 5.9456C5.982 9.76784 3.3434 15.215 3.3434 21.63H4.6434ZM28.7734 1.30001V2.60001C39.1109 2.60001 47.0738 5.81901 53.4824 11.312L54.3284 10.325L55.1744 9.33798C48.283 3.43101 39.7159 1.12653e-05 28.7734 1.12653e-05V1.30001ZM54.3284 10.325L53.2766 9.56098L45.9616 19.631L47.0134 20.395L48.0652 21.159L55.3802 11.089L54.3284 10.325ZM47.0134 20.395L47.8275 19.3815C41.8501 14.58 35.0162 11.875 28.3934 11.875V13.175V14.475C34.3106 14.475 40.5867 16.9 46.1993 21.4085L47.0134 20.395ZM28.3934 13.175V11.875C22.0271 11.875 17.4984 15.2963 17.4984 20.205H18.7984H20.0984C20.0984 17.3237 22.7897 14.475 28.3934 14.475V13.175ZM18.7984 20.205H17.4984C17.4984 21.5775 17.7823 22.8128 18.4582 23.9073C19.129 24.9934 20.1216 25.8369 21.3662 26.5387C23.7937 27.9074 27.4792 28.8915 32.4763 30.0229L32.7634 28.755L33.0505 27.4871C27.9776 26.3385 24.6806 25.4227 22.6431 24.2739C21.6552 23.7168 21.0447 23.1473 20.6704 22.5412C20.3013 21.9435 20.0984 21.2076 20.0984 20.205H18.7984ZM32.7634 28.755L32.4805 30.0239C39.4985 31.5887 45.1091 33.3741 48.9607 36.1508C52.7058 38.8508 54.8334 42.5192 54.8334 48.135H56.1334H57.4334C57.4334 41.6858 54.906 37.2317 50.4811 34.0417C46.1627 30.9284 40.0883 29.0564 33.0463 27.4862L32.7634 28.755ZM56.1334 48.135H54.8334C54.8334 54.0046 52.6292 58.8036 48.6037 62.1582C44.5529 65.5338 38.5359 67.545 30.7684 67.545V68.845V70.145C38.9609 70.145 45.6264 68.0237 50.2681 64.1556C54.9351 60.2664 57.4334 54.7105 57.4334 48.135H56.1334ZM74.9256 60.77L75.961 59.9839L73.6256 56.908V60.77H74.9256ZM74.9256 84.045V85.345H76.2256V84.045H74.9256ZM61.0556 84.045H59.7556V85.345H61.0556V84.045ZM61.0556 18.59V17.29H59.7556V18.59H61.0556ZM74.9256 18.59H76.2256V17.29H74.9256V18.59ZM74.9256 25.43H73.6256V29.2351L75.9538 26.2254L74.9256 25.43ZM74.9256 41.2L73.6329 41.0621L73.6256 41.1309V41.2H74.9256ZM74.9256 45H73.6256V45.0682L73.6327 45.1361L74.9256 45ZM91.3606 17.45V18.75C103.608 18.75 112.671 28.6539 112.671 43.1H113.971H115.271C115.271 27.5261 105.334 16.15 91.3606 16.15V17.45ZM113.971 43.1H112.671C112.671 57.6445 103.605 67.545 91.3606 67.545V68.845V70.145C105.336 70.145 115.271 58.7655 115.271 43.1H113.971ZM91.3606 68.845V67.545C84.9295 67.545 79.6116 64.7921 75.961 59.9839L74.9256 60.77L73.8902 61.5561C78.0296 67.008 84.1117 70.145 91.3606 70.145V68.845ZM74.9256 60.77H73.6256V84.045H74.9256H76.2256V60.77H74.9256ZM74.9256 84.045V82.745H61.0556V84.045V85.345H74.9256V84.045ZM61.0556 84.045H62.3556V18.59H61.0556H59.7556V84.045H61.0556ZM61.0556 18.59V19.89H74.9256V18.59V17.29H61.0556V18.59ZM74.9256 18.59H73.6256V25.43H74.9256H76.2256V18.59H74.9256ZM74.9256 25.43L75.9538 26.2254C79.6054 21.5052 84.9274 18.75 91.3606 18.75V17.45V16.15C84.1138 16.15 78.0358 19.2848 73.8973 24.6346L74.9256 25.43ZM87.3706 57.16V58.46C91.5596 58.46 95.1877 56.8751 97.7617 54.1162C100.33 51.3637 101.781 47.5184 101.781 43.1H100.481H99.1806C99.1806 46.9467 97.9238 50.1313 95.8607 52.3425C93.8035 54.5474 90.8765 55.86 87.3706 55.86V57.16ZM100.481 43.1H101.781C101.781 38.7254 100.328 34.9037 97.7596 32.1646C95.1861 29.4196 91.5593 27.835 87.3706 27.835V29.135V30.435C90.8768 30.435 93.805 31.7479 95.8628 33.9429C97.9262 36.1438 99.1806 39.3046 99.1806 43.1H100.481ZM87.3706 29.135V27.835C79.8652 27.835 74.4528 33.3761 73.6329 41.0621L74.9256 41.2L76.2183 41.3379C76.9184 34.774 81.3859 30.435 87.3706 30.435V29.135ZM74.9256 41.2H73.6256V45H74.9256H76.2256V41.2H74.9256ZM74.9256 45L73.6327 45.1361C74.4513 52.9128 79.8598 58.46 87.3706 58.46V57.16V55.86C81.3913 55.86 76.9198 51.5272 76.2184 44.8639L74.9256 45ZM162.53 67.705V69.005H163.83V67.705H162.53ZM149.135 67.705H147.835V69.005H149.135V67.705ZM149.135 62.765H150.435V59.3227L148.16 61.9057L149.135 62.765ZM149.135 39.3L148.667 40.5127L150.435 41.1959V39.3H149.135ZM125.1 32.08L123.94 32.6662L124.53 33.833L125.693 33.2371L125.1 32.08ZM120.445 22.865L119.858 21.7055L118.7 22.2924L119.285 23.4512L120.445 22.865ZM149.135 52.22L150.408 52.4852L150.435 52.354V52.22H149.135ZM149.135 47.66H150.435V46.7495L149.58 46.4383L149.135 47.66ZM140.965 17.45V18.75C147.104 18.75 152.154 20.6787 155.659 24.0303C159.158 27.3754 161.23 32.2441 161.23 38.35H162.53H163.83C163.83 31.6309 161.533 26.0496 157.456 22.151C153.385 18.2588 147.652 16.15 140.965 16.15V17.45ZM162.53 38.35H161.23V67.705H162.53H163.83V38.35H162.53ZM162.53 67.705V66.405H149.135V67.705V69.005H162.53V67.705ZM149.135 67.705H150.435V62.765H149.135H147.835V67.705H149.135ZM149.135 62.765L148.16 61.9057C144.937 65.5645 139.716 67.545 134.695 67.545V68.845V70.145C140.315 70.145 146.304 67.9455 150.111 63.6244L149.135 62.765ZM134.695 68.845V67.545C124.718 67.545 117.47 61.6343 117.47 53.17H116.17H114.87C114.87 63.5158 123.773 70.145 134.695 70.145V68.845ZM116.17 53.17H117.47C117.47 44.4793 125.595 38.13 136.595 38.13V36.83V35.53C124.796 35.53 114.87 42.4807 114.87 53.17H116.17ZM136.595 36.83V38.13C140.408 38.13 144.62 38.949 148.667 40.5127L149.135 39.3L149.604 38.0874C145.291 36.421 140.762 35.53 136.595 35.53V36.83ZM149.135 39.3H150.435V38.35H149.135H147.835V39.3H149.135ZM149.135 38.35H150.435C150.435 35.4735 149.542 32.6634 147.424 30.5729C145.302 28.4788 142.112 27.265 137.83 27.265V28.565V29.865C141.624 29.865 144.086 30.9312 145.598 32.4234C147.113 33.9192 147.835 36.0016 147.835 38.35H149.135ZM137.83 28.565V27.265C132.983 27.265 128.496 28.88 124.508 30.923L125.1 32.08L125.693 33.2371C129.494 31.29 133.558 29.865 137.83 29.865V28.565ZM125.1 32.08L126.261 31.4939L121.606 22.2789L120.445 22.865L119.285 23.4512L123.94 32.6662L125.1 32.08ZM120.445 22.865L121.033 24.0246C127.832 20.5784 134.376 18.75 140.965 18.75V17.45V16.15C133.875 16.15 126.929 18.1216 119.858 21.7055L120.445 22.865ZM137.83 59.25V60.55C143.386 60.55 149.269 57.9553 150.408 52.4852L149.135 52.22L147.863 51.9549C147.102 55.6048 142.915 57.95 137.83 57.95V59.25ZM149.135 52.22H150.435V47.66H149.135H147.835V52.22H149.135ZM149.135 47.66L149.58 46.4383C146.3 45.2455 142.539 44.555 138.59 44.555V45.855V47.155C142.242 47.155 145.701 47.7945 148.691 48.8817L149.135 47.66ZM138.59 45.855V44.555C133.193 44.555 128.265 47.7722 128.265 52.79H129.565H130.865C130.865 49.8279 133.918 47.155 138.59 47.155V45.855ZM129.565 52.79H128.265C128.265 55.2111 129.35 57.2021 131.131 58.5522C132.882 59.8792 135.245 60.55 137.83 60.55V59.25V57.95C135.666 57.95 133.897 57.3858 132.702 56.4803C131.538 55.598 130.865 54.359 130.865 52.79H129.565ZM183.341 27.71H182.041L184.5 28.2983L183.341 27.71ZM200.156 17.45H201.456V16.15H200.156V17.45ZM200.156 29.135V30.435H201.456V29.135H200.156ZM183.341 67.705V69.005H184.641V67.705H183.341ZM169.471 67.705H168.171V69.005H169.471V67.705ZM169.471 18.59V17.29H168.171V18.59H169.471ZM183.341 18.59H184.641V17.29H183.341V18.59ZM183.341 27.71L184.5 28.2983C187.511 22.3642 193.147 18.75 200.156 18.75V17.45V16.15C192.155 16.15 185.63 20.3258 182.181 27.1217L183.341 27.71ZM200.156 17.45H198.856V29.135H200.156H201.456V17.45H200.156ZM200.156 29.135V27.835C194.782 27.835 190.244 29.3794 187.032 32.2648C183.805 35.1635 182.041 39.3072 182.041 44.24H183.341H184.641C184.641 39.9578 186.153 36.549 188.769 34.199C191.4 31.8356 195.269 30.435 200.156 30.435V29.135ZM183.341 44.24H182.041V67.705H183.341H184.641V44.24H183.341ZM183.341 67.705V66.405H169.471V67.705V69.005H183.341V67.705ZM169.471 67.705H170.771V18.59H169.471H168.171V67.705H169.471ZM169.471 18.59V19.89H183.341V18.59V17.29H169.471V18.59ZM183.341 18.59H182.041V27.71H183.341H184.641V18.59H183.341ZM251.192 18.59L252.169 19.4476L254.063 17.29H251.192V18.59ZM232.097 40.345L231.12 39.4875L230.451 40.2497L231.028 41.084L232.097 40.345ZM251.002 67.705V69.005H253.481L252.072 66.966L251.002 67.705ZM235.042 67.705L233.957 68.421L234.342 69.005H235.042V67.705ZM222.882 49.275L223.967 48.5591L223.054 47.1751L221.928 48.3921L222.882 49.275ZM216.992 55.64L216.038 54.7571L215.692 55.1308V55.64H216.992ZM216.992 67.705V69.005H218.292V67.705H216.992ZM203.122 67.705H201.822V69.005H203.122V67.705ZM203.122 1.30001V1.12653e-05H201.822V1.30001H203.122ZM216.992 1.30001H218.292V1.12653e-05H216.992V1.30001ZM216.992 39.775H215.692V43.2773L217.977 40.6232L216.992 39.775ZM235.232 18.59V17.29H234.636L234.247 17.7418L235.232 18.59ZM251.192 18.59L250.215 17.7324L231.12 39.4875L232.097 40.345L233.074 41.2026L252.169 19.4476L251.192 18.59ZM232.097 40.345L231.028 41.084L249.933 68.444L251.002 67.705L252.072 66.966L233.167 39.606L232.097 40.345ZM251.002 67.705V66.405H235.042V67.705V69.005H251.002V67.705ZM235.042 67.705L236.127 66.9891L223.967 48.5591L222.882 49.275L221.797 49.991L233.957 68.421L235.042 67.705ZM222.882 49.275L221.928 48.3921L216.038 54.7571L216.992 55.64L217.946 56.523L223.836 50.158L222.882 49.275ZM216.992 55.64H215.692V67.705H216.992H218.292V55.64H216.992ZM216.992 67.705V66.405H203.122V67.705V69.005H216.992V67.705ZM203.122 67.705H204.422V1.30001H203.122H201.822V67.705H203.122ZM203.122 1.30001V2.60001H216.992V1.30001V1.12653e-05H203.122V1.30001ZM216.992 1.30001H215.692V39.775H216.992H218.292V1.30001H216.992ZM216.992 39.775L217.977 40.6232L236.217 19.4382L235.232 18.59L234.247 17.7418L216.007 38.9268L216.992 39.775ZM235.232 18.59V19.89H251.192V18.59V17.29H235.232V18.59Z" fill="white" mask="url(#path-1-outside-1_384_356)"/>
<defs>
<linearGradient id="paint0_linear_384_356" x1="125.608" y1="-8.29498" x2="125.608" y2="86.705" gradientUnits="userSpaceOnUse">
<stop stop-color="white"/>
<stop offset="1" stop-color="#6FCFF8"/>
</linearGradient>
</defs>
</svg>
