<svg width="93" height="43" viewBox="0 0 93 43" fill="none" xmlns="http://www.w3.org/2000/svg">
<path d="M87.3292 13.9163C87.1917 12.6299 86.6123 11.6283 85.5911 10.9115C84.5797 10.1947 83.2639 9.83631 81.6437 9.83631C80.5047 9.83631 79.5276 10.0081 78.7126 10.3518C77.8976 10.6955 77.2741 11.1619 76.842 11.7511C76.41 12.3403 76.189 13.0129 76.1792 13.769C76.1792 14.3974 76.3216 14.9424 76.6064 15.4039C76.9009 15.8654 77.2986 16.2582 77.7994 16.5822C78.3002 16.8965 78.855 17.1616 79.4638 17.3776C80.0726 17.5936 80.6863 17.7753 81.305 17.9226L84.1329 18.6296C85.272 18.8947 86.3669 19.2531 87.4175 19.7048C88.478 20.1565 89.4256 20.726 90.2603 21.4134C91.1047 22.1007 91.7724 22.9305 92.2634 23.9026C92.7544 24.8747 92.9999 26.0138 92.9999 27.3198C92.9999 29.0873 92.5482 30.6436 91.6448 31.9889C90.7414 33.3243 89.4354 34.3701 87.7268 35.1262C86.0281 35.8725 83.9709 36.2456 81.5553 36.2456C79.2085 36.2456 77.171 35.8823 75.4428 35.1556C73.7244 34.429 72.3791 33.3685 71.407 31.9742C70.4447 30.5798 69.9243 28.881 69.8457 26.8779H75.2218C75.3004 27.9286 75.6244 28.8025 76.1939 29.4997C76.7635 30.1968 77.5048 30.7173 78.418 31.061C79.3411 31.4046 80.3721 31.5765 81.5112 31.5765C82.6993 31.5765 83.7402 31.3997 84.6337 31.0462C85.5371 30.6829 86.2441 30.1821 86.7547 29.5439C87.2653 28.8958 87.5255 28.1397 87.5354 27.2756C87.5255 26.49 87.2948 25.8419 86.8431 25.3313C86.3914 24.8109 85.7581 24.3788 84.943 24.0352C84.1378 23.6817 83.1952 23.3674 82.1151 23.0925L78.6832 22.2088C76.1989 21.5705 74.235 20.6033 72.7915 19.3071C71.3579 18.0011 70.6411 16.268 70.6411 14.1077C70.6411 12.3304 71.1222 10.7741 72.0845 9.43862C73.0566 8.10318 74.3774 7.06723 76.0467 6.33078C77.716 5.5845 79.6062 5.21136 81.7174 5.21136C83.858 5.21136 85.7335 5.5845 87.3439 6.33078C88.9641 7.06723 90.2357 8.09336 91.1587 9.40916C92.0818 10.7151 92.558 12.2175 92.5874 13.9163H87.3292Z" fill="white"/>
<path d="M0 5.21252L8.76737 36.2775H14.319L20.5533 14.4805H20.796L27.015 36.2775L29.4116 28.0562L23.4201 5.21252H17.914L11.9376 28.0411H11.6494L6.05222 5.21252H0Z" fill="white"/>
<path d="M54.017 36.2456H43.5005V5.21136H54.2291C57.3103 5.21136 59.9571 5.83266 62.1695 7.07524C64.392 8.30772 66.0993 10.0807 67.2914 12.3941C68.4835 14.7075 69.0795 17.4755 69.0795 20.6982C69.0795 23.9309 68.4784 26.709 67.2762 29.0326C66.0842 31.3561 64.3617 33.1391 62.1089 34.3817C59.8662 35.6243 57.1689 36.2456 54.017 36.2456ZM49.1224 31.3813H53.7442C55.9061 31.3813 57.7094 30.9874 59.154 30.1994C60.5986 29.4013 61.6846 28.2143 62.412 26.6383C63.1393 25.0523 63.503 23.0722 63.503 20.6982C63.503 18.3241 63.1393 16.3542 62.412 14.7883C61.6846 13.2124 60.6087 12.0355 59.1843 11.2576C57.77 10.4696 56.0122 10.0756 53.9109 10.0756H49.1224V31.3813Z" fill="white"/>
<path d="M38.4052 1.62499L27.377 40.7109L30.7468 40.7109L41.7541 1.62455L38.4052 1.62499Z" stroke="white" stroke-width="1.05368"/>
</svg>
