<svg width="1440" height="4625" viewBox="0 0 1440 4625" fill="none" xmlns="http://www.w3.org/2000/svg">
<g clip-path="url(#clip0_33_17)">
<rect width="1440" height="4625" fill="url(#paint0_linear_33_17)"/>
<rect x="-19" y="1764" width="1571" height="474" fill="#8EC442"/>
<rect x="3" y="3111" width="1466" height="1273" fill="url(#paint1_linear_33_17)"/>
<ellipse cx="484.5" cy="3150" rx="92.5" ry="79" transform="rotate(180 484.5 3150)" fill="url(#paint2_linear_33_17)"/>
<ellipse cx="364.5" cy="3229.5" rx="109.5" ry="149.5" transform="rotate(180 364.5 3229.5)" fill="url(#paint3_linear_33_17)"/>
<ellipse cx="212" cy="3214.5" rx="109" ry="149.5" transform="rotate(180 212 3214.5)" fill="url(#paint4_linear_33_17)"/>
<ellipse cx="102.5" cy="3347.5" rx="109.5" ry="149.5" transform="rotate(180 102.5 3347.5)" fill="url(#paint5_linear_33_17)"/>
<path d="M8 3648C36.9086 3648 64.6332 3632.25 85.0746 3604.21C105.516 3576.18 117 3538.15 117 3498.5C117 3458.85 105.516 3420.82 85.0746 3392.79C64.6332 3364.75 36.9086 3349 8.00002 3349L8 3498.5V3648Z" fill="url(#paint6_linear_33_17)"/>
<path d="M-38.5 3830C-9.45879 3830 18.393 3814.25 38.9282 3786.21C59.4634 3758.18 71 3720.15 71 3680.5C71 3640.85 59.4634 3602.82 38.9282 3574.79C18.393 3546.75 -9.45878 3531 -38.5 3531L-38.5 3680.5V3830Z" fill="url(#paint7_linear_33_17)"/>
<rect x="180" y="3291" width="219" height="117" transform="rotate(180 180 3291)" fill="url(#paint8_linear_33_17)"/>
<rect x="79" y="3556" width="118" height="296" transform="rotate(180 79 3556)" fill="url(#paint9_linear_33_17)"/>
<path d="M164.223 4158.61C-45.6928 4134.2 -2.28418 4172.57 -2.28418 4172.57V4415L1545.52 4402.79C1545.52 4402.79 1600.6 4201.05 1545.52 4219.08C1490.45 4237.1 1128.28 4141.17 880.789 4140.01C633.296 4138.85 663.098 4252.8 484.281 4259.77C305.463 4266.75 374.14 4183.03 164.223 4158.61Z" fill="#2D6025" fill-opacity="0.68"/>
<path d="M164.223 4176.33C-45.6928 4153.6 -2.28418 4189.32 -2.28418 4189.32V4415L1545.52 4403.63C1545.52 4403.63 1600.6 4215.84 1545.52 4232.61C1490.45 4249.39 1128.28 4160.09 880.789 4159.01C633.296 4157.93 663.098 4264 484.281 4270.5C305.463 4276.99 374.14 4199.06 164.223 4176.33Z" fill="#2D6025"/>
<ellipse cx="959.5" cy="4425" rx="92.5" ry="79" fill="url(#paint10_linear_33_17)"/>
<ellipse cx="1079.5" cy="4345.5" rx="109.5" ry="149.5" fill="url(#paint11_linear_33_17)"/>
<ellipse cx="1232" cy="4360.5" rx="109" ry="149.5" fill="url(#paint12_linear_33_17)"/>
<ellipse cx="1341.5" cy="4227.5" rx="109.5" ry="149.5" fill="url(#paint13_linear_33_17)"/>
<path d="M1436 3927C1407.09 3927 1379.37 3942.75 1358.93 3970.79C1338.48 3998.82 1327 4036.85 1327 4076.5C1327 4116.15 1338.48 4154.18 1358.93 4182.21C1379.37 4210.25 1407.09 4226 1436 4226L1436 4076.5V3927Z" fill="url(#paint14_linear_33_17)"/>
<path d="M1482.5 3745C1453.46 3745 1425.61 3760.75 1405.07 3788.79C1384.54 3816.82 1373 3854.85 1373 3894.5C1373 3934.15 1384.54 3972.18 1405.07 4000.21C1425.61 4028.25 1453.46 4044 1482.5 4044L1482.5 3894.5V3745Z" fill="url(#paint15_linear_33_17)"/>
<rect x="1264" y="4284" width="219" height="117" fill="url(#paint16_linear_33_17)"/>
<rect x="1365" y="4019" width="118" height="296" fill="url(#paint17_linear_33_17)"/>
<ellipse cx="1007.5" cy="565" rx="92.5" ry="79" fill="url(#paint18_linear_33_17)"/>
<ellipse cx="1127.5" cy="485.5" rx="109.5" ry="149.5" fill="url(#paint19_linear_33_17)"/>
<ellipse cx="1280" cy="500.5" rx="109" ry="149.5" fill="url(#paint20_linear_33_17)"/>
<ellipse cx="1389.5" cy="367.5" rx="109.5" ry="149.5" fill="url(#paint21_linear_33_17)"/>
<path d="M1484 67C1455.09 67 1427.37 82.7508 1406.93 110.788C1386.48 138.824 1375 176.85 1375 216.5C1375 256.15 1386.48 294.176 1406.93 322.212C1427.37 350.249 1455.09 366 1484 366L1484 216.5V67Z" fill="url(#paint22_linear_33_17)"/>
<rect x="1312" y="424" width="219" height="117" fill="url(#paint23_linear_33_17)"/>
<rect x="1413" y="159" width="118" height="296" fill="url(#paint24_linear_33_17)"/>
<rect x="1089" y="264" width="95" height="275" fill="url(#paint25_linear_33_17)"/>
<rect x="1274" y="354" width="95" height="275" transform="rotate(90 1274 354)" fill="url(#paint26_linear_33_17)"/>
<circle cx="1129" cy="470" r="290" fill="#FFF2D3"/>
<rect x="1480" y="502" width="1481" height="193" transform="rotate(-180 1480 502)" fill="url(#paint27_linear_33_17)"/>
<path d="M-7 609.234C-7 609.234 148.632 644.747 252.29 639.96C395.533 633.344 496.1 553.543 565.76 543.941C635.42 534.339 705.085 571.275 790.22 559.304C871.972 547.809 886.798 513.074 960.5 492.091C1032.31 471.646 1075.45 457.598 1157.87 453.683C1267.4 448.481 1329.12 453.761 1428.77 492.091C1528.42 530.421 1541 639.96 1541 639.96V974.105H-7V609.234Z" fill="#8EC442"/>
<mask id="mask0_33_17" style="mask-type:alpha" maskUnits="userSpaceOnUse" x="-7" y="452" width="1548" height="523">
<path d="M-7 609.248C-7 609.248 148.632 644.763 252.29 639.976C395.533 633.36 496.1 553.555 565.76 543.953C635.42 534.35 705.085 571.288 790.22 559.316C871.972 547.821 886.798 513.085 960.5 492.1C1032.31 471.654 1075.45 457.606 1157.87 453.691C1267.4 448.489 1321.95 453.691 1428.77 492.1C1535.59 530.51 1541 639.976 1541 639.976V974.135H-7V609.248Z" fill="#F2BB6A"/>
</mask>
<g mask="url(#mask0_33_17)">
<path d="M985.251 470.575C985.251 470.575 1199.4 418.634 1221.37 462.795C1231.92 484.018 1173.89 471.283 1188.08 491.965C1208.28 521.406 1278.67 501.53 1329.75 519.196C1513.78 582.845 1047.27 643.479 906.463 688.251C765.654 733.023 804.883 753.33 859.527 761.3C914.171 769.27 1039.33 756.784 1089.51 796.646C1130.65 829.317 1143.67 868.147 1089.51 895.616C1078.45 901.229 1054.98 910.657 1078.45 936.576C1101.91 962.495 1188.08 974.349 1188.08 974.349H404.245C404.245 974.349 841.821 905.045 859.527 872.053C877.233 839.06 732.795 806.07 629.54 796.646C526.284 787.222 509.11 805.571 432.407 796.646C371.267 789.532 317.587 778.066 305.679 747.161C288.664 703.001 404.245 723.595 502.812 688.251C601.378 652.906 428.071 623.914 460.569 586.925C484.16 560.074 518.401 547.632 573.216 537.44C649.911 523.178 718.718 572.372 779.736 554.906C840.753 537.44 985.251 470.575 985.251 470.575Z" fill="url(#paint28_linear_33_17)"/>
</g>
<circle cx="1093.5" cy="280.5" r="258.5" fill="url(#paint29_radial_33_17)"/>
<path d="M298.624 124.069C299.269 122.328 301.731 122.328 302.376 124.069L302.747 125.072C302.949 125.619 303.381 126.051 303.928 126.253L304.931 126.624C306.672 127.269 306.672 129.731 304.931 130.376L303.928 130.747C303.381 130.949 302.949 131.381 302.747 131.928L302.376 132.931C301.731 134.672 299.269 134.672 298.624 132.931L298.253 131.928C298.051 131.381 297.619 130.949 297.072 130.747L296.069 130.376C294.328 129.731 294.328 127.269 296.069 126.624L297.072 126.253C297.619 126.051 298.051 125.619 298.253 125.072L298.624 124.069Z" fill="white"/>
<path d="M769.624 332.069C770.269 330.328 772.731 330.328 773.376 332.069L774.827 335.991C775.03 336.539 775.461 336.97 776.009 337.173L779.931 338.624C781.672 339.269 781.672 341.731 779.931 342.376L776.009 343.827C775.461 344.03 775.03 344.461 774.827 345.009L773.376 348.931C772.731 350.672 770.269 350.672 769.624 348.931L768.173 345.009C767.97 344.461 767.539 344.03 766.991 343.827L763.069 342.376C761.328 341.731 761.328 339.269 763.069 338.624L766.991 337.173C767.539 336.97 767.97 336.539 768.173 335.991L769.624 332.069Z" fill="white"/>
<path d="M550.624 105.069C551.269 103.328 553.731 103.328 554.376 105.069L555.287 107.531C555.489 108.079 555.921 108.511 556.469 108.713L558.931 109.624C560.672 110.269 560.672 112.731 558.931 113.376L556.469 114.287C555.921 114.489 555.489 114.921 555.287 115.469L554.376 117.931C553.731 119.672 551.269 119.672 550.624 117.931L549.713 115.469C549.511 114.921 549.079 114.489 548.531 114.287L546.069 113.376C544.328 112.731 544.328 110.269 546.069 109.624L548.531 108.713C549.079 108.511 549.511 108.079 549.713 107.531L550.624 105.069Z" fill="white"/>
<path d="M21.1243 299.069C21.7686 297.328 24.2314 297.328 24.8757 299.069L25.1117 299.707C25.3142 300.254 25.7459 300.686 26.2933 300.888L26.931 301.124C28.6722 301.769 28.6722 304.231 26.931 304.876L26.2933 305.112C25.7459 305.314 25.3142 305.746 25.1117 306.293L24.8757 306.931C24.2314 308.672 21.7686 308.672 21.1243 306.931L20.8883 306.293C20.6858 305.746 20.2541 305.314 19.7067 305.112L19.069 304.876C17.3278 304.231 17.3278 301.769 19.069 301.124L19.7067 300.888C20.2541 300.686 20.6858 300.254 20.8883 299.707L21.1243 299.069Z" fill="white"/>
<path d="M523.124 119.069C523.769 117.328 526.231 117.328 526.876 119.069L527.112 119.707C527.314 120.254 527.746 120.686 528.293 120.888L528.931 121.124C530.672 121.769 530.672 124.231 528.931 124.876L528.293 125.112C527.746 125.314 527.314 125.746 527.112 126.293L526.876 126.931C526.231 128.672 523.769 128.672 523.124 126.931L522.888 126.293C522.686 125.746 522.254 125.314 521.707 125.112L521.069 124.876C519.328 124.231 519.328 121.769 521.069 121.124L521.707 120.888C522.254 120.686 522.686 120.254 522.888 119.707L523.124 119.069Z" fill="white"/>
<path d="M487.124 254.069C487.769 252.328 490.231 252.328 490.876 254.069L491.112 254.707C491.314 255.254 491.746 255.686 492.293 255.888L492.931 256.124C494.672 256.769 494.672 259.231 492.931 259.876L492.293 260.112C491.746 260.314 491.314 260.746 491.112 261.293L490.876 261.931C490.231 263.672 487.769 263.672 487.124 261.931L486.888 261.293C486.686 260.746 486.254 260.314 485.707 260.112L485.069 259.876C483.328 259.231 483.328 256.769 485.069 256.124L485.707 255.888C486.254 255.686 486.686 255.254 486.888 254.707L487.124 254.069Z" fill="white"/>
<circle cx="37.0001" cy="658.92" r="7.92" fill="#DD8A92"/>
<circle cx="47.0802" cy="669" r="7.92" fill="#DD8A92"/>
<circle cx="37.0001" cy="679.08" r="7.92" fill="#DD8A92"/>
<circle cx="26.92" cy="669.72" r="7.92" fill="#DD8A92"/>
<circle cx="35.5601" cy="668.28" r="7.92" fill="#DD8A92"/>
<circle cx="37.0001" cy="669.72" r="2.88" fill="#DE665E"/>
<circle cx="1437" cy="509.92" r="7.92" fill="#DD8A92"/>
<circle cx="1447.08" cy="520" r="7.92" fill="#DD8A92"/>
<circle cx="1437" cy="530.08" r="7.92" fill="#DD8A92"/>
<circle cx="1426.92" cy="520.72" r="7.92" fill="#DD8A92"/>
<circle cx="1435.56" cy="519.28" r="7.92" fill="#DD8A92"/>
<circle cx="1437" cy="520.72" r="2.88" fill="#DE665E"/>
<circle cx="366" cy="841.92" r="7.92" fill="#E87153"/>
<circle cx="376.08" cy="852" r="7.92" fill="#E87153"/>
<circle cx="366" cy="862.08" r="7.92" fill="#E87153"/>
<circle cx="355.92" cy="852.72" r="7.92" fill="#E87153"/>
<circle cx="364.56" cy="851.28" r="7.92" fill="#E87153"/>
<circle cx="366" cy="852.72" r="2.88" fill="#DE665E"/>
<circle cx="985" cy="694.92" r="7.92" fill="#F2BB6A"/>
<circle cx="995.08" cy="705" r="7.92" fill="#F2BB6A"/>
<circle cx="985" cy="715.08" r="7.92" fill="#F2BB6A"/>
<circle cx="974.92" cy="705.72" r="7.92" fill="#F2BB6A"/>
<circle cx="983.56" cy="704.28" r="7.92" fill="#F2BB6A"/>
<circle cx="985" cy="705.72" r="2.88" fill="#DE665E"/>
<rect x="-91" y="973" width="1571" height="797" fill="#8EC442"/>
<circle cx="81.0001" cy="1603.92" r="7.92" fill="#E87153"/>
<circle cx="91.0802" cy="1614" r="7.92" fill="#E87153"/>
<circle cx="81.0001" cy="1624.08" r="7.92" fill="#E87153"/>
<circle cx="70.92" cy="1614.72" r="7.92" fill="#E87153"/>
<circle cx="79.5601" cy="1613.28" r="7.92" fill="#E87153"/>
<circle cx="81.0001" cy="1614.72" r="2.88" fill="#DE665E"/>
<circle cx="702" cy="1819.92" r="7.92" fill="#DD8A92"/>
<circle cx="712.08" cy="1830" r="7.92" fill="#DD8A92"/>
<circle cx="702" cy="1840.08" r="7.92" fill="#DD8A92"/>
<circle cx="691.92" cy="1830.72" r="7.92" fill="#DD8A92"/>
<circle cx="700.56" cy="1829.28" r="7.92" fill="#DD8A92"/>
<circle cx="923" cy="1903.92" r="7.92" fill="#F2BB6A"/>
<circle cx="933.08" cy="1914" r="7.92" fill="#F2BB6A"/>
<circle cx="923" cy="1924.08" r="7.92" fill="#F2BB6A"/>
<circle cx="912.92" cy="1914.72" r="7.92" fill="#F2BB6A"/>
<circle cx="921.56" cy="1913.28" r="7.92" fill="#F2BB6A"/>
<circle cx="923" cy="1914.72" r="2.88" fill="#DE665E"/>
<path d="M84.2566 1798.08C98.1716 1797.59 105.057 1799.13 114.186 1808.14C120.641 1818.43 122.815 1824.39 121.736 1835.62C107.592 1837.2 101.293 1833.88 90.9975 1825.55C83.9618 1815.88 83.5236 1809.61 84.2566 1798.08Z" fill="#8EC442"/>
<path d="M914.257 1811.08C928.172 1810.59 935.057 1812.13 944.186 1821.14C950.641 1831.43 952.815 1837.39 951.736 1848.62C937.592 1850.2 931.293 1846.88 920.998 1838.55C913.962 1828.88 913.524 1822.61 914.257 1811.08Z" fill="#8EC442"/>
<rect y="4413" width="1473" height="214" fill="url(#paint30_linear_33_17)"/>
<path d="M674.573 4560.9C669.604 4560.58 664.443 4559.79 659.809 4558.74C657.706 4558.61 655.35 4558.16 652.894 4556.85C652.33 4556.55 651.762 4556.21 651.189 4555.81C647.851 4553.51 646.525 4551.39 646.308 4549.73C645.902 4546.62 645.727 4541.58 646.884 4539.5C648.037 4537.43 652.05 4534.04 654.07 4530.76C655.052 4529.16 655.676 4527.56 657.339 4526.21C659.96 4524.08 663.577 4522.49 666.484 4521.66C669.599 4520.77 672.87 4519.93 676.369 4519.47C680.865 4518.89 684.43 4518.35 687.465 4518.12C691.328 4517.82 696.232 4517.78 699.138 4517.41C701.428 4517.11 706.676 4516.75 710.817 4516.34C716.318 4515.81 724.119 4515.13 734.941 4515.04C742.171 4514.99 755.264 4514.99 762.31 4515.05C769.356 4515.11 770.326 4515.22 771.31 4515.28C777.732 4515.7 788.5 4516.27 794.988 4517.35C799.235 4518.06 803.07 4518.76 807.718 4519.42C810.657 4519.84 812.987 4520.21 817.85 4520.78C822.903 4521.37 827.023 4522.7 832.459 4523.44C837.284 4524.09 842.966 4526.15 847.313 4526.98C853.82 4528.24 862.927 4529.82 867.148 4532.31C868.446 4533.07 870.087 4534.21 869.996 4536.4C869.739 4542.67 869.368 4546.46 867.452 4548.21C864.351 4551.04 862.077 4552.47 859.945 4553.34C857.484 4554.35 854.595 4555.35 852.189 4556.06C849.98 4556.71 847.888 4557.86 845.574 4558.13C842.466 4558.49 836.231 4559.58 828.298 4560.74C819.405 4562.04 811.892 4562.65 808.585 4562.92C806.391 4563.09 802.225 4562.97 794.988 4563.51C790.957 4563.81 786.269 4564.4 777.264 4564.69C768.259 4564.98 755.324 4565.09 748.529 4564.92C741.083 4564.75 738.944 4564.37 734.341 4564.33C726.511 4564.27 719.338 4563.94 714.939 4563.68C708.902 4563.32 699.039 4562.14 693.404 4561.38C693.11 4561.34 692.533 4561.33 691.692 4561.33C689.885 4561.62 687.849 4562.69 688.913 4563.33C689.497 4563.68 680.209 4561.28 679.389 4561.16C678.913 4561.14 678.426 4561.12 677.93 4561.09C677.9 4561.16 677.765 4561.2 676.84 4561.04C676.105 4561 675.349 4560.95 674.573 4560.9Z" fill="#271C0A"/>
<path d="M651.78 4556.47C657.795 4558.59 666.44 4560.37 674.573 4560.9C685.252 4561.6 692.102 4561.2 693.404 4561.38M693.404 4561.38C699.039 4562.14 708.902 4563.32 714.939 4563.68C719.338 4563.94 726.511 4564.27 734.341 4564.33C738.944 4564.37 741.083 4564.75 748.529 4564.92C755.324 4565.09 768.259 4564.98 777.264 4564.69C786.269 4564.4 790.957 4563.81 794.988 4563.51C802.225 4562.97 806.391 4563.09 808.585 4562.92C811.892 4562.65 819.405 4562.04 828.298 4560.74C836.231 4559.58 842.466 4558.49 845.574 4558.13C847.888 4557.86 849.98 4556.71 852.189 4556.06C854.595 4555.35 857.484 4554.35 859.945 4553.34C862.077 4552.47 864.351 4551.04 867.452 4548.21C869.368 4546.46 869.739 4542.67 869.996 4536.4C870.087 4534.21 868.446 4533.07 867.148 4532.31C862.927 4529.82 853.82 4528.24 847.313 4526.98C842.966 4526.15 837.284 4524.09 832.459 4523.44C827.023 4522.7 822.903 4521.37 817.85 4520.78C812.987 4520.21 810.657 4519.84 807.718 4519.42C803.07 4518.76 799.235 4518.06 794.988 4517.35C788.5 4516.27 777.732 4515.7 771.31 4515.28C770.326 4515.22 769.356 4515.11 762.31 4515.05C755.264 4514.99 742.171 4514.99 734.941 4515.04C724.119 4515.13 716.318 4515.81 710.817 4516.34C706.676 4516.75 701.428 4517.11 699.138 4517.41C696.232 4517.78 691.328 4517.82 687.465 4518.12C684.43 4518.35 680.865 4518.89 676.369 4519.47C672.87 4519.93 669.599 4520.77 666.484 4521.66C663.577 4522.49 659.96 4524.08 657.339 4526.21C655.676 4527.56 655.052 4529.16 654.07 4530.76C652.05 4534.04 648.037 4537.43 646.884 4539.5C645.727 4541.58 645.902 4546.62 646.308 4549.73C646.525 4551.39 647.851 4553.51 651.189 4555.81C657.219 4559.98 662.869 4558.48 665.972 4558.66C669.155 4558.84 672.332 4560.13 675.524 4560.79C679.897 4561.68 676.286 4560.57 679.389 4561.16C680.209 4561.28 689.497 4563.68 688.913 4563.33C687.465 4562.46 691.759 4560.78 693.404 4561.38Z" stroke="#271C0A" stroke-width="2" stroke-linecap="round"/>
<path d="M613.183 4528.15C614.897 4526.04 612.096 4527.73 612.475 4524.46C612.734 4523.5 612.987 4523.19 613.178 4522.87C613.495 4522.23 613.877 4520.86 615.09 4519.11C616.173 4517.68 616.885 4515.97 617.892 4514.46C619.619 4511.86 621.613 4509.29 623.503 4508.33C627.139 4506.48 632.254 4504.85 638.095 4503.42C642.796 4502.26 644.753 4501.52 654.978 4499.97C660.272 4499.17 668.467 4498.02 680.749 4497.5C693.031 4496.97 708.918 4497.08 717.77 4497.24C726.623 4497.4 728.385 4497.66 729.985 4497.71C732.969 4497.82 735.522 4498.02 740.67 4498.08C744.68 4498.13 751.362 4498.13 759.64 4498.57C767.917 4499 777.5 4499.83 783.135 4500.31C788.771 4500.78 790.424 4500.83 794.152 4501.48C803.569 4503.11 810.143 4504.37 811.93 4504.43C813.709 4504.48 816.795 4504.73 820.535 4505.01C824.923 4505.33 827.649 4505.98 831.447 4506.6C837.94 4507.66 843.248 4508.42 845.173 4509.29C849.253 4511.15 853.976 4515.24 857.97 4518.44C859.814 4519.92 864.062 4522.96 872.359 4525.91C876.984 4527.55 882.586 4529.28 886.079 4529.8C892.68 4530.8 897.177 4531.57 897.633 4529.68C898.266 4527.07 898.099 4523.12 896.988 4521.92C895.713 4520.54 894.483 4518.76 887.331 4514.12C876.862 4507.33 874.647 4506.34 873.555 4504.79C872.659 4503.52 872.07 4501.74 866.926 4499.21C863.1 4497.33 856.151 4493.88 851.859 4492.36C846.418 4490.42 841.84 4489.94 836.67 4489.31C831.892 4488.72 828.344 4488.12 820.229 4488.04C815.18 4487.99 806.48 4487.99 801.611 4488.04C796.741 4488.09 795.732 4488.2 780.289 4488.36C764.846 4488.52 735.846 4488.73 720.957 4488.89C706.067 4489.05 705.313 4489.18 704.608 4489.2C703.274 4489.26 701.871 4489.44 699.755 4489.52C692.672 4489.79 686.848 4490.27 683.334 4490.47C678.543 4490.74 673.728 4491.19 670.089 4491.42C665.942 4491.69 661.153 4492.5 657.678 4492.96C655.252 4493.28 652.553 4494.04 650.611 4494.22C648.374 4494.44 644.465 4494.22 637.369 4495.5C627.44 4497.3 620.757 4498.57 620.11 4499.2C619.348 4499.94 618.501 4500.36 617.818 4500.78C615.768 4502.05 610.469 4504.85 607.819 4507.28C605.322 4509.58 602.45 4512.87 602.157 4514.42C601.776 4516.43 600.191 4518.88 601.524 4523.62C602.418 4526.8 602.778 4530.69 604.65 4530.96C605.718 4531.11 606.658 4530.79 607.547 4530.49L607.578 4530.48C609.426 4529.85 611.584 4530.12 613.183 4528.15Z" fill="#271C0A" stroke="#271C0A" stroke-width="2" stroke-linecap="round"/>
<path d="M622.142 4557.52C623.85 4559.39 621.059 4557.89 621.436 4560.78C621.695 4561.63 621.946 4561.91 622.137 4562.19C622.453 4562.75 622.833 4563.96 624.042 4565.5C625.122 4566.77 625.832 4568.28 626.835 4569.62C628.557 4571.91 630.543 4574.19 632.427 4575.03C636.051 4576.67 641.149 4578.11 646.97 4579.38C651.655 4580.4 653.605 4581.05 663.797 4582.42C669.072 4583.13 677.24 4584.15 689.481 4584.61C701.721 4585.07 717.554 4584.98 726.377 4584.84C735.2 4584.69 736.956 4584.47 738.551 4584.42C741.525 4584.32 744.069 4584.15 749.2 4584.09C753.196 4584.04 759.856 4584.04 768.106 4583.66C776.355 4583.28 785.906 4582.54 791.522 4582.12C797.139 4581.71 798.786 4581.66 802.502 4581.09C811.887 4579.64 818.439 4578.53 820.22 4578.48C821.993 4578.44 825.069 4578.21 828.796 4577.97C833.169 4577.69 835.886 4577.11 839.671 4576.56C846.142 4575.63 851.433 4574.96 853.351 4574.18C857.417 4572.54 862.124 4568.92 866.105 4566.1C867.942 4564.79 872.176 4562.11 880.445 4559.5C885.055 4558.05 890.638 4556.52 894.12 4556.06C900.698 4555.18 905.18 4554.49 905.635 4556.16C906.265 4558.47 906.098 4561.97 904.991 4563.03C903.721 4564.25 902.495 4565.81 895.367 4569.92C884.933 4575.92 882.726 4576.79 881.637 4578.16C880.744 4579.28 880.157 4580.86 875.031 4583.09L874.503 4583.32C870.606 4585.02 864.101 4587.86 860.014 4589.15C854.592 4590.86 850.029 4591.29 844.876 4591.85C840.114 4592.36 836.579 4592.89 828.491 4592.97C823.459 4593.01 814.788 4593.01 809.935 4592.96C805.082 4592.92 804.077 4592.82 788.685 4592.68C773.294 4592.54 744.392 4592.36 729.553 4592.22C714.714 4592.08 713.962 4591.96 713.259 4591.94C711.93 4591.89 710.531 4591.73 708.423 4591.66C701.363 4591.42 695.559 4590.99 692.057 4590.82C687.282 4590.58 682.483 4590.18 678.857 4589.98C674.723 4589.74 669.95 4589.03 666.487 4588.62C664.069 4588.34 661.379 4587.66 659.444 4587.5C657.215 4587.31 653.318 4587.5 646.246 4586.37C636.351 4584.78 629.69 4583.66 629.046 4583.1C628.286 4582.45 627.442 4582.08 626.761 4581.7C624.718 4580.58 619.437 4578.11 616.796 4575.96C614.308 4573.93 611.446 4571.03 611.153 4569.65C610.774 4567.87 609.194 4565.71 610.523 4561.52C611.414 4558.71 611.772 4555.28 613.637 4555.04C614.702 4554.9 615.639 4555.18 616.525 4555.45L616.556 4555.46C618.397 4556.02 620.548 4555.78 622.142 4557.52Z" fill="#271C0A" stroke="#271C0A" stroke-width="2" stroke-linecap="round"/>
<path d="M1212.33 4470.55C1216.65 4471 1219.59 4471.2 1222.85 4471.3C1223.35 4471.4 1228.25 4471.2 1228.82 4471.3C1229.4 4471.4 1230.05 4471.5 1231.29 4471.55C1236.59 4471.7 1241.17 4471.95 1251.08 4472.36C1257.23 4472.61 1268.23 4473.01 1298.24 4472.8C1328.24 4472.59 1375.81 4471.79 1406.68 4470.63C1437.55 4469.47 1451.3 4467.99 1458.51 4467.14C1465.72 4466.3 1466.36 4465.98 1467.78 4466C1473.89 4466.11 1476.44 4466.97 1479.28 4467.96C1481.73 4468.81 1485.9 4470.47 1484.83 4472.05C1484.66 4472.3 1484.17 4472.4 1482.34 4472.71C1473.54 4474.21 1469.69 4475 1460.15 4475.4C1455.42 4475.6 1447.98 4475.7 1443.51 4475.85C1439.04 4476 1437.58 4476.2 1431.85 4476.61C1426.13 4477.01 1416.42 4477.61 1410.31 4478.01L1409.89 4478.03C1404.08 4478.41 1401.15 4478.61 1374.4 4478.75C1347.01 4478.9 1296.21 4479 1270.14 4479C1244.07 4479 1242.78 4478.87 1240.38 4478.85C1234.58 4478.8 1225.42 4478.93 1216.26 4477.19C1209.42 4475.89 1203.96 4474.57 1200.69 4472.74C1198.82 4471.7 1197.65 4470.84 1198.09 4470.15C1198.5 4469.5 1198.74 4468.44 1199.65 4468.5C1202.6 4468.7 1205.02 4469.8 1212.33 4470.55Z" fill="#271C0A" stroke="#271C0A" stroke-width="2" stroke-linecap="round"/>
<path d="M1334.49 4496.55C1337.05 4497 1338.79 4497.2 1340.72 4497.3C1341.02 4497.4 1343.92 4497.2 1344.26 4497.3C1344.6 4497.4 1344.98 4497.5 1345.72 4497.55C1348.86 4497.7 1351.57 4497.95 1357.44 4498.36C1361.08 4498.61 1367.6 4499.01 1385.37 4498.8C1403.15 4498.59 1431.32 4497.79 1449.61 4496.63C1467.89 4495.47 1476.04 4493.99 1480.31 4493.14C1484.58 4492.3 1484.96 4491.98 1485.8 4492C1489.42 4492.11 1490.93 4492.97 1492.61 4493.96C1494.07 4494.81 1496.54 4496.47 1495.9 4498.05C1495.8 4498.3 1495.51 4498.4 1494.43 4498.71C1489.21 4500.21 1486.93 4501 1481.28 4501.4C1478.48 4501.6 1474.07 4501.7 1471.42 4501.85C1468.78 4502 1467.91 4502.2 1464.52 4502.61C1461.13 4503.01 1455.38 4503.61 1451.76 4504.01L1451.51 4504.03C1448.07 4504.41 1446.33 4504.61 1430.49 4504.75C1414.26 4504.9 1384.17 4505 1368.73 4505C1353.29 4505 1352.52 4504.87 1351.1 4504.85C1347.67 4504.8 1342.24 4504.93 1336.82 4503.19C1332.77 4501.89 1329.53 4500.57 1327.59 4498.74C1326.49 4497.7 1325.79 4496.84 1326.06 4496.15C1326.3 4495.5 1326.44 4494.44 1326.98 4494.5C1328.73 4494.7 1330.16 4495.8 1334.49 4496.55Z" fill="#271C0A" stroke="#271C0A" stroke-width="2" stroke-linecap="round"/>
<path d="M1311.49 4616.55C1314.05 4617 1315.79 4617.2 1317.72 4617.3C1318.02 4617.4 1320.92 4617.2 1321.26 4617.3C1321.6 4617.4 1321.98 4617.5 1322.72 4617.55C1325.86 4617.7 1328.57 4617.95 1334.44 4618.36C1338.08 4618.61 1344.6 4619.01 1362.37 4618.8C1380.15 4618.59 1408.32 4617.79 1426.61 4616.63C1444.89 4615.47 1453.04 4613.99 1457.31 4613.14C1461.58 4612.3 1461.96 4611.98 1462.8 4612C1466.42 4612.11 1467.93 4612.97 1469.61 4613.96C1471.07 4614.81 1473.54 4616.47 1472.9 4618.05C1472.8 4618.3 1472.51 4618.4 1471.43 4618.71C1466.21 4620.21 1463.93 4621 1458.28 4621.4C1455.48 4621.6 1451.07 4621.7 1448.42 4621.85C1445.78 4622 1444.91 4622.2 1441.52 4622.61C1438.13 4623.01 1432.38 4623.61 1428.76 4624.01L1428.51 4624.03C1425.07 4624.41 1423.33 4624.61 1407.49 4624.75C1391.26 4624.9 1361.17 4625 1345.73 4625C1330.29 4625 1329.52 4624.87 1328.1 4624.85C1324.67 4624.8 1319.24 4624.93 1313.82 4623.19C1309.77 4621.89 1306.53 4620.57 1304.59 4618.74C1303.49 4617.7 1302.79 4616.84 1303.06 4616.15C1303.3 4615.5 1303.44 4614.44 1303.98 4614.5C1305.73 4614.7 1307.16 4615.8 1311.49 4616.55Z" fill="#271C0A" stroke="#271C0A" stroke-width="2" stroke-linecap="round"/>
<path d="M1386.19 4547.07C1387.76 4548.54 1388.82 4549.21 1390.01 4549.54C1390.19 4549.87 1391.96 4549.21 1392.17 4549.54C1392.38 4549.87 1392.61 4550.2 1393.06 4550.36C1394.98 4550.87 1396.64 4551.67 1400.23 4553.02C1402.46 4553.86 1406.45 4555.17 1417.32 4554.48C1428.2 4553.78 1445.43 4551.16 1456.62 4547.32C1467.81 4543.48 1472.79 4538.57 1475.4 4535.78C1478.01 4532.99 1478.25 4531.92 1478.76 4532C1480.97 4532.35 1481.9 4535.21 1482.93 4538.47C1483.82 4541.28 1485.33 4546.78 1484.94 4552.03C1484.88 4552.85 1484.7 4553.16 1484.04 4554.18C1480.85 4559.14 1479.45 4561.77 1475.99 4563.1C1474.28 4563.76 1471.59 4564.09 1469.97 4564.59C1468.35 4565.09 1467.82 4565.75 1465.74 4567.09C1463.67 4568.43 1460.15 4570.39 1457.94 4571.71C1455.72 4573.03 1454.84 4573.69 1444.92 4574.18C1435 4574.68 1416.59 4575 1407.14 4575C1397.69 4574.99 1397.23 4574.57 1396.36 4574.5C1394.26 4574.34 1390.94 4574.77 1387.62 4569.02C1385.14 4564.73 1383.16 4560.36 1381.97 4554.3C1381.3 4550.85 1380.87 4548.02 1381.03 4545.72C1381.18 4543.57 1381.27 4540.07 1381.6 4540.27C1382.67 4540.94 1383.54 4544.56 1386.19 4547.07Z" fill="#271C0A" stroke="#271C0A" stroke-width="2" stroke-linecap="round"/>
<path d="M1356.49 4444.55C1359.05 4445 1360.79 4445.2 1362.72 4445.3C1363.02 4445.4 1365.92 4445.2 1366.26 4445.3C1366.6 4445.4 1366.98 4445.5 1367.72 4445.55C1370.86 4445.7 1373.57 4445.95 1379.44 4446.36C1383.08 4446.61 1389.6 4447.01 1407.37 4446.8C1425.15 4446.59 1453.32 4445.79 1471.61 4444.63C1489.89 4443.47 1498.04 4441.99 1502.31 4441.14C1506.58 4440.3 1506.96 4439.98 1507.8 4440C1511.42 4440.11 1512.93 4440.97 1514.61 4441.96C1516.07 4442.81 1518.54 4444.47 1517.9 4446.05C1517.8 4446.3 1517.51 4446.4 1516.43 4446.71C1511.21 4448.21 1508.93 4449 1503.28 4449.4C1500.48 4449.6 1496.07 4449.7 1493.42 4449.85C1490.78 4450 1489.91 4450.2 1486.52 4450.61C1483.13 4451.01 1477.38 4451.61 1473.76 4452.01L1473.51 4452.03C1470.07 4452.41 1468.33 4452.61 1452.49 4452.75C1436.26 4452.9 1406.17 4453 1390.73 4453C1375.29 4453 1374.52 4452.87 1373.1 4452.85C1369.67 4452.8 1364.24 4452.93 1358.82 4451.19C1354.77 4449.89 1351.53 4448.57 1349.59 4446.74C1348.49 4445.7 1347.79 4444.84 1348.06 4444.15C1348.3 4443.5 1348.44 4442.44 1348.98 4442.5C1350.73 4442.7 1352.16 4443.8 1356.49 4444.55Z" fill="#271C0A" stroke="#271C0A" stroke-width="2" stroke-linecap="round"/>
<path d="M1153.49 4450.55C1156.05 4451 1157.79 4451.2 1159.72 4451.3C1160.02 4451.4 1162.92 4451.2 1163.26 4451.3C1163.6 4451.4 1163.98 4451.5 1164.72 4451.55C1167.86 4451.7 1170.57 4451.95 1176.44 4452.36C1180.08 4452.61 1186.6 4453.01 1204.37 4452.8C1222.15 4452.59 1250.32 4451.79 1268.61 4450.63C1286.89 4449.47 1295.04 4447.99 1299.31 4447.14C1303.58 4446.3 1303.96 4445.98 1304.8 4446C1308.42 4446.11 1309.93 4446.97 1311.61 4447.96C1313.07 4448.81 1315.54 4450.47 1314.9 4452.05C1314.8 4452.3 1314.51 4452.4 1313.43 4452.71C1308.21 4454.21 1305.93 4455 1300.28 4455.4C1297.48 4455.6 1293.07 4455.7 1290.42 4455.85C1287.78 4456 1286.91 4456.2 1283.52 4456.61C1280.13 4457.01 1274.38 4457.61 1270.76 4458.01L1270.51 4458.03C1267.07 4458.41 1265.33 4458.61 1249.49 4458.75C1233.26 4458.9 1203.17 4459 1187.73 4459C1172.29 4459 1171.52 4458.87 1170.1 4458.85C1166.67 4458.8 1161.24 4458.93 1155.82 4457.19C1151.77 4455.89 1148.53 4454.57 1146.59 4452.74C1145.49 4451.7 1144.79 4450.84 1145.06 4450.15C1145.3 4449.5 1145.44 4448.44 1145.98 4448.5C1147.73 4448.7 1149.16 4449.8 1153.49 4450.55Z" fill="#271C0A" stroke="#271C0A" stroke-width="2" stroke-linecap="round"/>
<path d="M1101.54 4503.55C1104.11 4504 1105.86 4504.2 1107.81 4504.3C1108.1 4504.4 1111.02 4504.2 1111.37 4504.3C1111.71 4504.4 1112.09 4504.5 1112.83 4504.55C1115.99 4504.7 1118.72 4504.95 1124.62 4505.36C1128.29 4505.61 1134.85 4506.01 1152.72 4505.8C1170.6 4505.59 1198.94 4504.79 1217.34 4503.63C1235.73 4502.47 1243.92 4500.99 1248.22 4500.14C1252.51 4499.3 1252.89 4498.98 1253.74 4499C1257.38 4499.11 1258.9 4499.97 1260.59 4500.96C1262.05 4501.81 1264.54 4503.47 1263.9 4505.05C1263.8 4505.3 1263.5 4505.4 1262.42 4505.71C1257.17 4507.21 1254.88 4508 1249.19 4508.4C1246.38 4508.6 1241.94 4508.7 1239.28 4508.85C1236.62 4509 1235.75 4509.2 1232.33 4509.61C1228.92 4510.01 1223.14 4510.61 1219.5 4511.01L1219.25 4511.03C1215.79 4511.41 1214.04 4511.61 1198.1 4511.75C1181.78 4511.9 1151.51 4512 1135.98 4512C1120.45 4512 1119.68 4511.87 1118.25 4511.85C1114.8 4511.8 1109.34 4511.93 1103.88 4510.19C1099.81 4508.89 1096.55 4507.57 1094.6 4505.74C1093.49 4504.7 1092.79 4503.84 1093.06 4503.15C1093.3 4502.5 1093.44 4501.44 1093.98 4501.5C1095.74 4501.7 1097.18 4502.8 1101.54 4503.55Z" fill="#271C0A" stroke="#271C0A" stroke-width="2" stroke-linecap="round"/>
<path d="M523.539 4430.55C526.114 4431 527.864 4431.2 529.806 4431.3C530.104 4431.4 533.023 4431.2 533.366 4431.3C533.709 4431.4 534.095 4431.5 534.834 4431.55C537.992 4431.7 540.72 4431.95 546.624 4432.36C550.29 4432.61 556.845 4433.01 574.723 4432.8C592.601 4432.59 620.943 4431.79 639.336 4430.63C657.728 4429.47 665.922 4427.99 670.218 4427.14C674.513 4426.3 674.894 4425.98 675.737 4426C679.38 4426.11 680.9 4426.97 682.593 4427.96C684.054 4428.81 686.539 4430.47 685.896 4432.05C685.795 4432.3 685.504 4432.4 684.418 4432.71C679.17 4434.21 676.876 4435 671.193 4435.4C668.379 4435.6 663.944 4435.7 661.28 4435.85C658.616 4436 657.748 4436.2 654.335 4436.61C650.921 4437.01 645.137 4437.61 641.5 4438.01L641.251 4438.03C637.788 4438.41 636.039 4438.61 620.101 4438.75C603.784 4438.9 573.514 4439 557.982 4439C542.449 4439 541.679 4438.87 540.25 4438.85C536.797 4438.8 531.339 4438.93 525.879 4437.19C521.805 4435.89 518.551 4434.57 516.602 4432.74C515.489 4431.7 514.793 4430.84 515.055 4430.15C515.299 4429.5 515.438 4428.44 515.984 4428.5C517.742 4428.7 519.183 4429.8 523.539 4430.55Z" fill="#271C0A" stroke="#271C0A" stroke-width="2" stroke-linecap="round"/>
<path d="M1009.39 4477.55C1011.32 4478 1012.63 4478.2 1014.08 4478.3C1014.31 4478.4 1016.49 4478.2 1016.75 4478.3C1017 4478.4 1017.29 4478.5 1017.85 4478.55C1020.21 4478.7 1022.25 4478.95 1026.67 4479.36C1029.42 4479.61 1034.32 4480.01 1047.71 4479.8C1061.09 4479.59 1082.3 4478.79 1096.07 4477.63C1109.84 4476.47 1115.97 4474.99 1119.19 4474.14C1122.4 4473.3 1122.69 4472.98 1123.32 4473C1126.04 4473.11 1127.18 4473.97 1128.45 4474.96C1129.54 4475.81 1131.4 4477.47 1130.92 4479.05C1130.85 4479.3 1130.63 4479.4 1129.82 4479.71C1125.89 4481.21 1124.17 4482 1119.92 4482.4C1117.81 4482.6 1114.49 4482.7 1112.5 4482.85C1110.5 4483 1109.85 4483.2 1107.3 4483.61C1104.74 4484.01 1100.41 4484.61 1097.69 4485.01C1094.97 4485.4 1093.89 4485.6 1081.67 4485.75C1069.46 4485.9 1046.8 4486 1035.17 4486C1023.55 4486 1022.97 4485.87 1021.9 4485.85C1019.32 4485.8 1015.23 4485.93 1011.14 4484.19C1008.09 4482.89 1005.66 4481.57 1004.2 4479.74C1003.37 4478.7 1002.84 4477.84 1003.04 4477.15C1003.22 4476.5 1003.33 4475.44 1003.74 4475.5C1005.05 4475.7 1006.13 4476.8 1009.39 4477.55Z" fill="#271C0A" stroke="#271C0A" stroke-width="2" stroke-linecap="round"/>
<path d="M873.392 4443.55C875.319 4444 876.629 4444.2 878.083 4444.3C878.306 4444.4 880.491 4444.2 880.748 4444.3C881.004 4444.4 881.293 4444.5 881.846 4444.55C884.21 4444.7 886.252 4444.95 890.672 4445.36C893.416 4445.61 898.323 4446.01 911.705 4445.8C925.088 4445.59 946.303 4444.79 960.07 4443.63C973.837 4442.47 979.971 4440.99 983.186 4440.14C986.402 4439.3 986.687 4438.98 987.318 4439C990.045 4439.11 991.182 4439.97 992.45 4440.96C993.543 4441.81 995.403 4443.47 994.922 4445.05C994.847 4445.3 994.629 4445.4 993.816 4445.71C989.887 4447.21 988.17 4448 983.917 4448.4C981.81 4448.6 978.49 4448.7 976.496 4448.85C974.502 4449 973.852 4449.2 971.297 4449.61C968.742 4450.01 964.413 4450.61 961.69 4451.01C958.968 4451.4 957.885 4451.6 945.672 4451.75C933.458 4451.9 910.8 4452 899.173 4452C887.547 4452 886.97 4451.87 885.9 4451.85C883.316 4451.8 879.231 4451.93 875.143 4450.19C872.094 4448.89 869.658 4447.57 868.199 4445.74C867.366 4444.7 866.845 4443.84 867.042 4443.15C867.224 4442.5 867.328 4441.44 867.737 4441.5C869.052 4441.7 870.131 4442.8 873.392 4443.55Z" fill="#271C0A" stroke="#271C0A" stroke-width="2" stroke-linecap="round"/>
<path d="M312.669 4470.55C308.347 4471 305.41 4471.2 302.15 4471.3C301.65 4471.4 296.752 4471.2 296.175 4471.3C295.599 4471.4 294.952 4471.5 293.712 4471.55C288.412 4471.7 283.833 4471.95 273.924 4472.36C267.77 4472.61 256.768 4473.01 226.762 4472.8C196.757 4472.59 149.189 4471.79 118.32 4470.63C87.451 4469.47 73.6984 4467.99 66.4886 4467.14C59.2789 4466.3 58.6404 4465.98 57.2246 4466C51.1106 4466.11 48.5605 4466.97 45.7174 4467.96C43.266 4468.81 39.0962 4470.47 40.1747 4472.05C40.3438 4472.3 40.8318 4472.4 42.6555 4472.71C51.4636 4474.21 55.3134 4475 64.851 4475.4C69.575 4475.6 77.0176 4475.7 81.4891 4475.85C85.9605 4476 87.4167 4476.2 93.1458 4476.61C98.8748 4477.01 108.583 4477.61 114.687 4478.01L115.105 4478.03C120.917 4478.41 123.852 4478.61 150.603 4478.75C177.988 4478.9 228.792 4479 254.861 4479C280.93 4479 282.223 4478.87 284.622 4478.85C290.417 4478.8 299.577 4478.93 308.742 4477.19C315.579 4475.89 321.04 4474.57 324.311 4472.74C326.179 4471.7 327.348 4470.84 326.907 4470.15C326.498 4469.5 326.264 4468.44 325.348 4468.5C322.399 4468.7 319.979 4469.8 312.669 4470.55Z" fill="#271C0A" stroke="#271C0A" stroke-width="2" stroke-linecap="round"/>
<path d="M190.511 4496.55C187.951 4497 186.212 4497.2 184.28 4497.3C183.984 4497.4 181.083 4497.2 180.742 4497.3C180.4 4497.4 180.017 4497.5 179.282 4497.55C176.143 4497.7 173.431 4497.95 167.561 4498.36C163.916 4498.61 157.399 4499.01 139.626 4498.8C121.852 4498.59 93.6761 4497.79 75.3915 4496.63C57.1069 4495.47 48.9607 4493.99 44.6901 4493.14C40.4195 4492.3 40.0414 4491.98 39.2027 4492C35.5812 4492.11 34.0706 4492.97 32.3866 4493.96C30.9345 4494.81 28.4646 4496.47 29.1035 4498.05C29.2037 4498.3 29.4927 4498.4 30.573 4498.71C35.7903 4500.21 38.0706 4501 43.7201 4501.4C46.5183 4501.6 50.9268 4501.7 53.5754 4501.85C56.224 4502 57.0865 4502.2 60.4801 4502.61C63.8736 4503.01 69.6238 4503.61 73.2395 4504.01L73.4875 4504.03C76.9297 4504.41 78.6686 4504.61 94.514 4504.75C110.735 4504.9 140.828 4505 156.27 4505C171.711 4505 172.477 4504.87 173.898 4504.85C177.331 4504.8 182.756 4504.93 188.185 4503.19C192.235 4501.89 195.47 4500.57 197.407 4498.74C198.514 4497.7 199.206 4496.84 198.945 4496.15C198.702 4495.5 198.564 4494.44 198.021 4494.5C196.274 4494.7 194.841 4495.8 190.511 4496.55Z" fill="#271C0A" stroke="#271C0A" stroke-width="2" stroke-linecap="round"/>
<path d="M213.511 4616.55C210.951 4617 209.212 4617.2 207.28 4617.3C206.984 4617.4 204.083 4617.2 203.742 4617.3C203.4 4617.4 203.017 4617.5 202.282 4617.55C199.143 4617.7 196.431 4617.95 190.561 4618.36C186.916 4618.61 180.399 4619.01 162.626 4618.8C144.852 4618.59 116.676 4617.79 98.3915 4616.63C80.1069 4615.47 71.9607 4613.99 67.6901 4613.14C63.4195 4612.3 63.0414 4611.98 62.2027 4612C58.5812 4612.11 57.0706 4612.97 55.3866 4613.96C53.9345 4614.81 51.4646 4616.47 52.1035 4618.05C52.2037 4618.3 52.4927 4618.4 53.573 4618.71C58.7903 4620.21 61.0706 4621 66.7201 4621.4C69.5183 4621.6 73.9268 4621.7 76.5754 4621.85C79.224 4622 80.0865 4622.2 83.4801 4622.61C86.8736 4623.01 92.6238 4623.61 96.2395 4624.01L96.4875 4624.03C99.9297 4624.41 101.669 4624.61 117.514 4624.75C133.735 4624.9 163.828 4625 179.27 4625C194.711 4625 195.477 4624.87 196.898 4624.85C200.331 4624.8 205.756 4624.93 211.185 4623.19C215.235 4621.89 218.47 4620.57 220.407 4618.74C221.514 4617.7 222.206 4616.84 221.945 4616.15C221.702 4615.5 221.564 4614.44 221.021 4614.5C219.274 4614.7 217.841 4615.8 213.511 4616.55Z" fill="#271C0A" stroke="#271C0A" stroke-width="2" stroke-linecap="round"/>
<path d="M138.807 4547.07C137.241 4548.54 136.176 4549.21 134.995 4549.54C134.814 4549.87 133.039 4549.21 132.83 4549.54C132.621 4549.87 132.387 4550.2 131.937 4550.36C130.017 4550.87 128.358 4551.67 124.767 4553.02C122.537 4553.86 118.55 4555.17 107.677 4554.48C96.8038 4553.78 79.5666 4551.16 68.3807 4547.32C57.1948 4543.48 52.2113 4538.57 49.5987 4535.78C46.9861 4532.99 46.7547 4531.92 46.2417 4532C44.0261 4532.35 43.102 4535.21 42.0718 4538.47C41.1835 4541.28 39.6725 4546.78 40.0633 4552.03C40.1246 4552.85 40.3014 4553.16 40.9623 4554.18C44.1541 4559.14 45.5491 4561.77 49.0053 4563.1C50.7171 4563.76 53.414 4564.09 55.0344 4564.59C56.6547 4565.09 57.1824 4565.75 59.2584 4567.09C61.3344 4568.43 64.8522 4570.39 67.0642 4571.71C69.2761 4573.03 70.1556 4573.69 80.0791 4574.18C90.0027 4574.68 108.413 4575 117.859 4575C127.306 4574.99 127.774 4574.57 128.643 4574.5C130.743 4574.34 134.063 4574.77 137.384 4569.02C139.861 4564.73 141.84 4560.36 143.026 4554.3C143.702 4550.85 144.126 4548.02 143.966 4545.72C143.818 4543.57 143.733 4540.07 143.401 4540.27C142.333 4540.94 141.456 4544.56 138.807 4547.07Z" fill="#271C0A" stroke="#271C0A" stroke-width="2" stroke-linecap="round"/>
<path d="M168.511 4444.55C165.951 4445 164.212 4445.2 162.28 4445.3C161.984 4445.4 159.083 4445.2 158.742 4445.3C158.4 4445.4 158.017 4445.5 157.282 4445.55C154.143 4445.7 151.431 4445.95 145.561 4446.36C141.916 4446.61 135.399 4447.01 117.626 4446.8C99.8523 4446.59 71.6761 4445.79 53.3915 4444.63C35.1069 4443.47 26.9607 4441.99 22.6901 4441.14C18.4195 4440.3 18.0414 4439.98 17.2027 4440C13.5812 4440.11 12.0706 4440.97 10.3866 4441.96C8.93454 4442.81 6.46461 4444.47 7.10345 4446.05C7.20366 4446.3 7.49271 4446.4 8.57297 4446.71C13.7903 4448.21 16.0706 4449 21.7201 4449.4C24.5183 4449.6 28.9268 4449.7 31.5754 4449.85C34.224 4450 35.0865 4450.2 38.4801 4450.61C41.8736 4451.01 47.6238 4451.61 51.2395 4452.01L51.4875 4452.03C54.9297 4452.41 56.6686 4452.61 72.514 4452.75C88.7352 4452.9 118.828 4453 134.27 4453C149.711 4453 150.477 4452.87 151.898 4452.85C155.331 4452.8 160.756 4452.93 166.185 4451.19C170.235 4449.89 173.47 4448.57 175.407 4446.74C176.514 4445.7 177.206 4444.84 176.945 4444.15C176.702 4443.5 176.564 4442.44 176.021 4442.5C174.274 4442.7 172.841 4443.8 168.511 4444.55Z" fill="#271C0A" stroke="#271C0A" stroke-width="2" stroke-linecap="round"/>
<path d="M371.511 4450.55C368.951 4451 367.212 4451.2 365.28 4451.3C364.984 4451.4 362.083 4451.2 361.742 4451.3C361.4 4451.4 361.017 4451.5 360.282 4451.55C357.143 4451.7 354.431 4451.95 348.561 4452.36C344.916 4452.61 338.399 4453.01 320.626 4452.8C302.852 4452.59 274.676 4451.79 256.392 4450.63C238.107 4449.47 229.961 4447.99 225.69 4447.14C221.42 4446.3 221.041 4445.98 220.203 4446C216.581 4446.11 215.071 4446.97 213.387 4447.96C211.935 4448.81 209.465 4450.47 210.103 4452.05C210.204 4452.3 210.493 4452.4 211.573 4452.71C216.79 4454.21 219.071 4455 224.72 4455.4C227.518 4455.6 231.927 4455.7 234.575 4455.85C237.224 4456 238.087 4456.2 241.48 4456.61C244.874 4457.01 250.624 4457.61 254.24 4458.01L254.488 4458.03C257.93 4458.41 259.669 4458.61 275.514 4458.75C291.735 4458.9 321.828 4459 337.27 4459C352.711 4459 353.477 4458.87 354.898 4458.85C358.331 4458.8 363.756 4458.93 369.185 4457.19C373.235 4455.89 376.47 4454.57 378.407 4452.74C379.514 4451.7 380.206 4450.84 379.945 4450.15C379.702 4449.5 379.564 4448.44 379.021 4448.5C377.274 4448.7 375.841 4449.8 371.511 4450.55Z" fill="#271C0A" stroke="#271C0A" stroke-width="2" stroke-linecap="round"/>
<path d="M423.461 4503.55C420.886 4504 419.136 4504.2 417.194 4504.3C416.896 4504.4 413.977 4504.2 413.634 4504.3C413.291 4504.4 412.905 4504.5 412.166 4504.55C409.008 4504.7 406.28 4504.95 400.376 4505.36C396.71 4505.61 390.155 4506.01 372.277 4505.8C354.399 4505.59 326.057 4504.79 307.664 4503.63C289.272 4502.47 281.078 4500.99 276.782 4500.14C272.487 4499.3 272.106 4498.98 271.263 4499C267.62 4499.11 266.1 4499.97 264.407 4500.96C262.946 4501.81 260.461 4503.47 261.104 4505.05C261.205 4505.3 261.496 4505.4 262.582 4505.71C267.83 4507.21 270.124 4508 275.807 4508.4C278.621 4508.6 283.056 4508.7 285.72 4508.85C288.384 4509 289.252 4509.2 292.665 4509.61C296.079 4510.01 301.863 4510.61 305.5 4511.01L305.749 4511.03C309.212 4511.41 310.961 4511.61 326.899 4511.75C343.216 4511.9 373.486 4512 389.018 4512C404.551 4512 405.321 4511.87 406.75 4511.85C410.203 4511.8 415.661 4511.93 421.121 4510.19C425.195 4508.89 428.449 4507.57 430.398 4505.74C431.511 4504.7 432.207 4503.84 431.945 4503.15C431.701 4502.5 431.562 4501.44 431.016 4501.5C429.258 4501.7 427.817 4502.8 423.461 4503.55Z" fill="#271C0A" stroke="#271C0A" stroke-width="2" stroke-linecap="round"/>
<rect y="4384" width="1469" height="36" fill="#CD740C"/>
<rect x="295" y="4384" width="917" height="36" fill="#39280E"/>
<path d="M1249.5 4385C1254.08 4385.34 1256.05 4384.92 1259.5 4385C1260.03 4385.08 1264.89 4384.92 1265.5 4385C1266.11 4385.08 1271.19 4384.96 1272.5 4385C1278.11 4385.12 1278.73 4383.58 1289.22 4383.89C1295.74 4384.08 1307.39 4384.39 1339.18 4384.23C1370.96 4384.07 1421.35 4383.46 1454.04 4382.56C1486.74 4381.67 1501.31 4380.53 1508.94 4379.88C1516.58 4379.23 1517.26 4378.98 1518.76 4379C1525.23 4379.08 1527.93 4379.75 1530.95 4380.5C1533.54 4381.16 1537.96 4382.44 1536.82 4383.66C1536.64 4383.85 1536.12 4383.92 1534.19 4384.16C1524.86 4385.31 1520.78 4385.92 1510.68 4386.23C1505.68 4386.39 1497.79 4386.46 1493.06 4386.58C1488.32 4386.7 1486.78 4386.85 1480.71 4387.16C1474.64 4387.47 1464.36 4387.93 1457.89 4388.24L1457.45 4388.26C1451.29 4388.55 1448.18 4388.7 1419.85 4388.81C1390.84 4388.92 1337.03 4389 1309.41 4389C1281.8 4389 1280.43 4388.9 1277.89 4388.88C1271.75 4388.85 1261.21 4391.34 1251.5 4390C1244.26 4389 1238.96 4390.91 1235.5 4389.5C1233.52 4388.7 1229.53 4387.04 1230 4386.5C1230.43 4386 1233.03 4384.45 1234 4384.5C1237.12 4384.66 1241.76 4384.42 1249.5 4385Z" fill="#A05900" stroke="#A05900" stroke-width="2" stroke-linecap="round"/>
<path d="M1475 3175.9C1475 3175.9 1324.29 3140.39 1223.92 3145.18C1085.21 3151.79 987.825 3231.59 920.37 3241.19C852.915 3250.8 785.455 3213.86 703.015 3225.83C623.85 3237.33 609.494 3272.06 538.125 3293.04C468.586 3313.49 426.81 3327.54 347.002 3331.45C240.944 3336.65 181.176 3331.37 84.6774 3293.04C-11.8214 3254.71 -24 3145.18 -24 3145.18L-24 2811.03L1475 2811.03L1475 3175.9Z" fill="#73A32F"/>
<rect x="-66" y="1952" width="1571" height="859" fill="url(#paint31_linear_33_17)"/>
<path d="M1505 3163.9C1505 3163.9 1347.06 3128.39 1241.86 3133.18C1096.49 3139.79 994.425 3219.59 923.73 3229.19C853.035 3238.8 782.335 3201.86 695.935 3213.83C612.968 3225.33 597.922 3260.06 523.125 3281.04C450.246 3301.49 406.463 3315.54 322.823 3319.45C211.669 3324.65 149.031 3319.37 47.8975 3281.04C-53.2363 3242.71 -66 3133.18 -66 3133.18L-66 2799.03L1505 2799.03L1505 3163.9Z" fill="#7FB335"/>
<circle cx="271" cy="2485.92" r="7.92" fill="#DD8A92"/>
<circle cx="281.08" cy="2496" r="7.92" fill="#DD8A92"/>
<circle cx="271" cy="2506.08" r="7.92" fill="#DD8A92"/>
<circle cx="260.92" cy="2496.72" r="7.92" fill="#DD8A92"/>
<circle cx="269.56" cy="2495.28" r="7.92" fill="#DD8A92"/>
<circle cx="271" cy="2496.72" r="2.88" fill="#DE665E"/>
<circle cx="960" cy="2358.92" r="7.92" fill="#F2BB6A"/>
<circle cx="970.08" cy="2369" r="7.92" fill="#F2BB6A"/>
<circle cx="960" cy="2379.08" r="7.92" fill="#F2BB6A"/>
<circle cx="949.92" cy="2369.72" r="7.92" fill="#F2BB6A"/>
<circle cx="958.56" cy="2368.28" r="7.92" fill="#F2BB6A"/>
<circle cx="960" cy="2369.72" r="2.88" fill="#DE665E"/>
<path d="M1253.26 2881.08C1267.17 2880.59 1274.06 2882.13 1283.19 2891.14C1289.64 2901.43 1291.82 2907.39 1290.74 2918.62C1276.59 2920.2 1270.29 2916.88 1260 2908.55C1252.96 2898.88 1252.52 2892.61 1253.26 2881.08Z" fill="#8EC442"/>
<path d="M171.257 2606.08C185.172 2605.59 192.057 2607.13 201.186 2616.14C207.641 2626.43 209.815 2632.39 208.736 2643.62C194.592 2645.2 188.293 2641.88 177.998 2633.55C170.962 2623.88 170.524 2617.61 171.257 2606.08Z" fill="#8EC442"/>
<circle cx="1254" cy="2507.92" r="7.92" fill="#E87153"/>
<circle cx="1264.08" cy="2518" r="7.92" fill="#E87153"/>
<circle cx="1254" cy="2528.08" r="7.92" fill="#E87153"/>
<circle cx="1243.92" cy="2518.72" r="7.92" fill="#E87153"/>
<circle cx="1252.56" cy="2517.28" r="7.92" fill="#E87153"/>
<circle cx="1254" cy="2518.72" r="2.88" fill="#DE665E"/>
<circle cx="526" cy="3236.92" r="7.92" fill="#E87153"/>
<circle cx="536.08" cy="3247" r="7.92" fill="#E87153"/>
<circle cx="526" cy="3257.08" r="7.92" fill="#E87153"/>
<circle cx="515.92" cy="3247.72" r="7.92" fill="#E87153"/>
<circle cx="524.56" cy="3246.28" r="7.92" fill="#E87153"/>
<circle cx="526" cy="3247.72" r="2.88" fill="#DE665E"/>
<circle cx="262" cy="3072.92" r="7.92" fill="#B0D1B2"/>
<circle cx="272.08" cy="3083" r="7.92" fill="#B0D1B2"/>
<circle cx="262" cy="3093.08" r="7.92" fill="#B0D1B2"/>
<circle cx="251.92" cy="3083.72" r="7.92" fill="#B0D1B2"/>
<circle cx="260.56" cy="3082.28" r="7.92" fill="#B0D1B2"/>
<circle cx="262" cy="3083.72" r="2.88" fill="#31B18A"/>
<path d="M-11.6688 4407.99C-7.34692 4407.31 -4.41008 4407 -1.14964 4406.84C-0.649544 4406.69 4.24847 4407 4.82456 4406.84C5.40065 4406.69 6.04784 4406.53 7.28828 4406.46C12.5883 4406.23 17.1672 4405.85 27.0764 4405.22C33.2296 4404.83 44.2317 4404.22 74.2376 4404.55C104.243 4404.87 151.811 4406.09 182.68 4407.87C213.549 4409.66 227.302 4411.94 234.511 4413.24C241.721 4414.54 242.36 4415.04 243.775 4415C249.889 4414.84 252.44 4413.51 255.283 4411.99C257.734 4410.68 261.904 4408.13 260.825 4405.69C260.656 4405.3 260.168 4405.16 258.344 4404.68C249.536 4402.38 245.687 4401.15 236.149 4400.53C231.425 4400.23 223.982 4400.07 219.511 4399.84C215.039 4399.61 213.583 4399.3 207.854 4398.68C202.125 4398.06 192.417 4397.14 186.313 4396.53L185.895 4396.49C180.083 4395.9 177.148 4395.61 150.397 4395.38C123.012 4395.15 72.2078 4395 46.139 4395C20.0702 4395 18.7769 4395.2 16.3783 4395.23C10.583 4395.31 1.42332 4395.11 -7.74161 4397.78C-14.5787 4399.78 -20.0404 4401.81 -23.3108 4404.63C-25.1788 4406.23 -26.348 4407.55 -25.9069 4408.62C-25.4975 4409.62 -25.2643 4411.25 -24.3478 4411.15C-21.3987 4410.84 -18.979 4409.16 -11.6688 4407.99Z" fill="#A05900" stroke="#A05900" stroke-width="2" stroke-linecap="round"/>
<path d="M222.124 3708.07C222.769 3706.33 225.231 3706.33 225.876 3708.07L226.112 3708.71C226.314 3709.25 226.746 3709.69 227.293 3709.89L227.931 3710.12C229.672 3710.77 229.672 3713.23 227.931 3713.88L227.293 3714.11C226.746 3714.31 226.314 3714.75 226.112 3715.29L225.876 3715.93C225.231 3717.67 222.769 3717.67 222.124 3715.93L221.888 3715.29C221.686 3714.75 221.254 3714.31 220.707 3714.11L220.069 3713.88C218.328 3713.23 218.328 3710.77 220.069 3710.12L220.707 3709.89C221.254 3709.69 221.686 3709.25 221.888 3708.71L222.124 3708.07Z" fill="white"/>
<path d="M247.624 3717.07C248.269 3715.33 250.731 3715.33 251.376 3717.07L252.557 3720.26C252.76 3720.81 253.191 3721.24 253.739 3721.44L256.931 3722.62C258.672 3723.27 258.672 3725.73 256.931 3726.38L253.739 3727.56C253.191 3727.76 252.76 3728.19 252.557 3728.74L251.376 3731.93C250.731 3733.67 248.269 3733.67 247.624 3731.93L246.443 3728.74C246.24 3728.19 245.809 3727.76 245.261 3727.56L242.069 3726.38C240.328 3725.73 240.328 3723.27 242.069 3722.62L245.261 3721.44C245.809 3721.24 246.24 3720.81 246.443 3720.26L247.624 3717.07Z" fill="white"/>
<path d="M1222.62 4083.07C1223.27 4081.33 1225.73 4081.33 1226.38 4083.07L1227.56 4086.26C1227.76 4086.81 1228.19 4087.24 1228.74 4087.44L1231.93 4088.62C1233.67 4089.27 1233.67 4091.73 1231.93 4092.38L1228.74 4093.56C1228.19 4093.76 1227.76 4094.19 1227.56 4094.74L1226.38 4097.93C1225.73 4099.67 1223.27 4099.67 1222.62 4097.93L1221.44 4094.74C1221.24 4094.19 1220.81 4093.76 1220.26 4093.56L1217.07 4092.38C1215.33 4091.73 1215.33 4089.27 1217.07 4088.62L1220.26 4087.44C1220.81 4087.24 1221.24 4086.81 1221.44 4086.26L1222.62 4083.07Z" fill="white"/>
<path d="M465.221 4480.92C472.804 4481.46 483.413 4481.19 486.438 4480.99C488.007 4480.12 488.791 4479.92 489.486 4480.03C490.187 4480.13 490.869 4480.47 491.179 4481.03C492.788 4483.94 495.978 4487.42 495.967 4490.52C495.964 4491.32 495.875 4492.29 494.852 4492.82C492.357 4494.11 490.132 4494.53 488.561 4494.91C483.56 4496.11 464.628 4502.33 459.906 4492.68C459.016 4490.86 458.705 4488.19 459.322 4486.69C460.22 4484.51 460.875 4481.67 463.318 4480.72C463.822 4480.53 464.392 4480.87 465.221 4480.92Z" fill="#271C0A"/>
<path d="M1262.22 4519.92C1269.8 4520.46 1280.41 4520.19 1283.44 4519.99C1285.01 4519.12 1285.79 4518.92 1286.49 4519.03C1287.19 4519.13 1287.87 4519.47 1288.18 4520.03C1289.79 4522.94 1292.98 4526.42 1292.97 4529.52C1292.96 4530.32 1292.87 4531.29 1291.85 4531.82C1289.36 4533.11 1287.13 4533.53 1285.56 4533.91C1280.56 4535.11 1261.63 4541.33 1256.91 4531.68C1256.02 4529.86 1255.71 4527.19 1256.32 4525.69C1257.22 4523.51 1257.87 4520.67 1260.32 4519.72C1260.82 4519.53 1261.39 4519.87 1262.22 4519.92Z" fill="#271C0A"/>
<path d="M976.221 4502.92C983.804 4503.46 994.413 4503.19 997.438 4502.99C999.007 4502.12 999.791 4501.92 1000.49 4502.03C1001.19 4502.13 1001.87 4502.47 1002.18 4503.03C1003.79 4505.94 1006.98 4509.42 1006.97 4512.52C1006.96 4513.32 1006.87 4514.29 1005.85 4514.82C1003.36 4516.11 1001.13 4516.53 999.561 4516.91C994.56 4518.11 975.628 4524.33 970.906 4514.68C970.016 4512.86 969.705 4510.19 970.322 4508.69C971.22 4506.51 971.875 4503.67 974.318 4502.72C974.822 4502.53 975.392 4502.87 976.221 4502.92Z" fill="#271C0A"/>
<path d="M-22 2248.44C-22 2248.44 200.388 2220.76 348.51 2224.49C553.196 2229.64 696.9 2291.85 796.44 2299.33C895.98 2306.82 995.527 2278.03 1117.18 2287.36C1234 2296.32 1255.18 2323.39 1360.5 2339.75C1463.12 2355.69 1524.76 2366.64 1642.53 2369.69C1799.04 2373.74 1887.23 2369.63 2029.63 2339.75C2172.03 2309.87 2190 2224.49 2190 2224.49V1964.02H-22V2248.44Z" fill="#8EC442"/>
<circle cx="1375" cy="1106.92" r="7.92" fill="#F2BB6A"/>
<circle cx="1385.08" cy="1117" r="7.92" fill="#F2BB6A"/>
<circle cx="1375" cy="1127.08" r="7.92" fill="#F2BB6A"/>
<circle cx="1364.92" cy="1117.72" r="7.92" fill="#F2BB6A"/>
<circle cx="1373.56" cy="1116.28" r="7.92" fill="#F2BB6A"/>
<circle cx="1375" cy="1117.72" r="2.88" fill="#DE665E"/>
<circle cx="116" cy="1095.92" r="7.92" fill="#DD8A92"/>
<circle cx="126.08" cy="1106" r="7.92" fill="#DD8A92"/>
<circle cx="116" cy="1116.08" r="7.92" fill="#DD8A92"/>
<circle cx="105.92" cy="1106.72" r="7.92" fill="#DD8A92"/>
<circle cx="114.56" cy="1105.28" r="7.92" fill="#DD8A92"/>
<circle cx="116" cy="1106.72" r="2.88" fill="#DE665E"/>
<circle cx="620" cy="1032.92" r="7.92" fill="#E87153"/>
<circle cx="630.08" cy="1043" r="7.92" fill="#E87153"/>
<circle cx="620" cy="1053.08" r="7.92" fill="#E87153"/>
<circle cx="609.92" cy="1043.72" r="7.92" fill="#E87153"/>
<circle cx="618.56" cy="1042.28" r="7.92" fill="#E87153"/>
<circle cx="620" cy="1043.72" r="2.88" fill="#DE665E"/>
<circle cx="1363" cy="1923.92" r="7.92" fill="#B0D1B2"/>
<circle cx="1373.08" cy="1934" r="7.92" fill="#B0D1B2"/>
<circle cx="1363" cy="1944.08" r="7.92" fill="#B0D1B2"/>
<circle cx="1352.92" cy="1934.72" r="7.92" fill="#B0D1B2"/>
<circle cx="1361.56" cy="1933.28" r="7.92" fill="#B0D1B2"/>
<circle cx="1363" cy="1934.72" r="2.88" fill="#31B18A"/>
<circle cx="800" cy="1191.92" r="7.92" fill="#F2BB6A"/>
<circle cx="810.08" cy="1202" r="7.92" fill="#F2BB6A"/>
<circle cx="800" cy="1212.08" r="7.92" fill="#F2BB6A"/>
<circle cx="789.92" cy="1202.72" r="7.92" fill="#F2BB6A"/>
<circle cx="798.56" cy="1201.28" r="7.92" fill="#F2BB6A"/>
<circle cx="800" cy="1202.72" r="2.88" fill="#DE665E"/>
<circle cx="29.0001" cy="1466.92" r="7.92" fill="#B0D1B2"/>
<circle cx="39.0802" cy="1477" r="7.92" fill="#B0D1B2"/>
<circle cx="29.0001" cy="1487.08" r="7.92" fill="#B0D1B2"/>
<circle cx="18.92" cy="1477.72" r="7.92" fill="#B0D1B2"/>
<circle cx="27.5601" cy="1476.28" r="7.92" fill="#B0D1B2"/>
<circle cx="29.0001" cy="1477.72" r="2.88" fill="#31B18A"/>
</g>
<defs>
<linearGradient id="paint0_linear_33_17" x1="720" y1="0" x2="720" y2="4625" gradientUnits="userSpaceOnUse">
<stop stop-color="#72D5FF"/>
<stop offset="1" stop-color="#448099"/>
</linearGradient>
<linearGradient id="paint1_linear_33_17" x1="736" y1="3111" x2="736" y2="4384" gradientUnits="userSpaceOnUse">
<stop stop-color="#3392C0"/>
<stop offset="1" stop-color="#8BCEE8"/>
</linearGradient>
<linearGradient id="paint2_linear_33_17" x1="484.5" y1="3071" x2="484.5" y2="3229" gradientUnits="userSpaceOnUse">
<stop stop-color="white"/>
<stop offset="1" stop-color="#F9F9F9"/>
</linearGradient>
<linearGradient id="paint3_linear_33_17" x1="364.5" y1="3080" x2="364.5" y2="3379" gradientUnits="userSpaceOnUse">
<stop stop-color="white"/>
<stop offset="1" stop-color="#F9F9F9"/>
</linearGradient>
<linearGradient id="paint4_linear_33_17" x1="212" y1="3065" x2="212" y2="3364" gradientUnits="userSpaceOnUse">
<stop stop-color="white"/>
<stop offset="1" stop-color="#F9F9F9"/>
</linearGradient>
<linearGradient id="paint5_linear_33_17" x1="102.5" y1="3198" x2="102.5" y2="3497" gradientUnits="userSpaceOnUse">
<stop stop-color="white"/>
<stop offset="1" stop-color="#F9F9F9"/>
</linearGradient>
<linearGradient id="paint6_linear_33_17" x1="8" y1="3648" x2="8" y2="3349" gradientUnits="userSpaceOnUse">
<stop stop-color="white"/>
<stop offset="1" stop-color="#F9F9F9"/>
</linearGradient>
<linearGradient id="paint7_linear_33_17" x1="-38.5" y1="3830" x2="-38.5" y2="3531" gradientUnits="userSpaceOnUse">
<stop stop-color="white"/>
<stop offset="1" stop-color="#F9F9F9"/>
</linearGradient>
<linearGradient id="paint8_linear_33_17" x1="289.5" y1="3291" x2="289.5" y2="3408" gradientUnits="userSpaceOnUse">
<stop stop-color="white"/>
<stop offset="1" stop-color="#F9F9F9"/>
</linearGradient>
<linearGradient id="paint9_linear_33_17" x1="138" y1="3556" x2="138" y2="3852" gradientUnits="userSpaceOnUse">
<stop stop-color="white"/>
<stop offset="1" stop-color="#F9F9F9"/>
</linearGradient>
<linearGradient id="paint10_linear_33_17" x1="959.5" y1="4346" x2="959.5" y2="4504" gradientUnits="userSpaceOnUse">
<stop stop-color="white"/>
<stop offset="1" stop-color="#F9F9F9"/>
</linearGradient>
<linearGradient id="paint11_linear_33_17" x1="1079.5" y1="4196" x2="1079.5" y2="4495" gradientUnits="userSpaceOnUse">
<stop stop-color="white"/>
<stop offset="1" stop-color="#F9F9F9"/>
</linearGradient>
<linearGradient id="paint12_linear_33_17" x1="1232" y1="4211" x2="1232" y2="4510" gradientUnits="userSpaceOnUse">
<stop stop-color="white"/>
<stop offset="1" stop-color="#F9F9F9"/>
</linearGradient>
<linearGradient id="paint13_linear_33_17" x1="1341.5" y1="4078" x2="1341.5" y2="4377" gradientUnits="userSpaceOnUse">
<stop stop-color="white"/>
<stop offset="1" stop-color="#F9F9F9"/>
</linearGradient>
<linearGradient id="paint14_linear_33_17" x1="1436" y1="3927" x2="1436" y2="4226" gradientUnits="userSpaceOnUse">
<stop stop-color="white"/>
<stop offset="1" stop-color="#F9F9F9"/>
</linearGradient>
<linearGradient id="paint15_linear_33_17" x1="1482.5" y1="3745" x2="1482.5" y2="4044" gradientUnits="userSpaceOnUse">
<stop stop-color="white"/>
<stop offset="1" stop-color="#F9F9F9"/>
</linearGradient>
<linearGradient id="paint16_linear_33_17" x1="1373.5" y1="4284" x2="1373.5" y2="4401" gradientUnits="userSpaceOnUse">
<stop stop-color="white"/>
<stop offset="1" stop-color="#F9F9F9"/>
</linearGradient>
<linearGradient id="paint17_linear_33_17" x1="1424" y1="4019" x2="1424" y2="4315" gradientUnits="userSpaceOnUse">
<stop stop-color="white"/>
<stop offset="1" stop-color="#F9F9F9"/>
</linearGradient>
<linearGradient id="paint18_linear_33_17" x1="1007.5" y1="486" x2="1007.5" y2="644" gradientUnits="userSpaceOnUse">
<stop stop-color="white"/>
<stop offset="1" stop-color="#F9F9F9"/>
</linearGradient>
<linearGradient id="paint19_linear_33_17" x1="1127.5" y1="336" x2="1127.5" y2="635" gradientUnits="userSpaceOnUse">
<stop stop-color="white"/>
<stop offset="1" stop-color="#F9F9F9"/>
</linearGradient>
<linearGradient id="paint20_linear_33_17" x1="1280" y1="351" x2="1280" y2="650" gradientUnits="userSpaceOnUse">
<stop stop-color="white"/>
<stop offset="1" stop-color="#F9F9F9"/>
</linearGradient>
<linearGradient id="paint21_linear_33_17" x1="1389.5" y1="218" x2="1389.5" y2="517" gradientUnits="userSpaceOnUse">
<stop stop-color="white"/>
<stop offset="1" stop-color="#F9F9F9"/>
</linearGradient>
<linearGradient id="paint22_linear_33_17" x1="1484" y1="67" x2="1484" y2="366" gradientUnits="userSpaceOnUse">
<stop stop-color="white"/>
<stop offset="1" stop-color="#F9F9F9"/>
</linearGradient>
<linearGradient id="paint23_linear_33_17" x1="1421.5" y1="424" x2="1421.5" y2="541" gradientUnits="userSpaceOnUse">
<stop stop-color="white"/>
<stop offset="1" stop-color="#F9F9F9"/>
</linearGradient>
<linearGradient id="paint24_linear_33_17" x1="1472" y1="159" x2="1472" y2="455" gradientUnits="userSpaceOnUse">
<stop stop-color="white"/>
<stop offset="1" stop-color="#F9F9F9"/>
</linearGradient>
<linearGradient id="paint25_linear_33_17" x1="1136.5" y1="264" x2="1136.5" y2="539" gradientUnits="userSpaceOnUse">
<stop stop-color="#D9D9D9" stop-opacity="0"/>
<stop offset="0.463542" stop-color="white" stop-opacity="0.3"/>
<stop offset="1" stop-color="#D9D9D9" stop-opacity="0"/>
</linearGradient>
<linearGradient id="paint26_linear_33_17" x1="1321.5" y1="354" x2="1321.5" y2="629" gradientUnits="userSpaceOnUse">
<stop stop-color="#D9D9D9" stop-opacity="0"/>
<stop offset="0.463542" stop-color="white" stop-opacity="0.3"/>
<stop offset="1" stop-color="#D9D9D9" stop-opacity="0"/>
</linearGradient>
<linearGradient id="paint27_linear_33_17" x1="2220.5" y1="502" x2="2220.5" y2="695" gradientUnits="userSpaceOnUse">
<stop stop-color="white"/>
<stop offset="1" stop-color="#D9D9D9" stop-opacity="0"/>
</linearGradient>
<linearGradient id="paint28_linear_33_17" x1="838.06" y1="445" x2="838.06" y2="974.349" gradientUnits="userSpaceOnUse">
<stop offset="0.25" stop-color="#AFD157"/>
<stop offset="1" stop-color="#E2EEC2" stop-opacity="0"/>
</linearGradient>
<radialGradient id="paint29_radial_33_17" cx="0" cy="0" r="1" gradientUnits="userSpaceOnUse" gradientTransform="translate(1093.5 280.5) rotate(90) scale(258.5)">
<stop stop-color="#FFEEC4"/>
<stop offset="1" stop-color="#D9D9D9" stop-opacity="0"/>
</radialGradient>
<linearGradient id="paint30_linear_33_17" x1="736.5" y1="4413" x2="736.5" y2="4627" gradientUnits="userSpaceOnUse">
<stop stop-color="#39280E"/>
<stop offset="1" stop-color="#271C0A"/>
</linearGradient>
<linearGradient id="paint31_linear_33_17" x1="719.5" y1="1952" x2="721.572" y2="2330.6" gradientUnits="userSpaceOnUse">
<stop stop-color="#8EC442"/>
<stop offset="1" stop-color="#7FB335"/>
</linearGradient>
<clipPath id="clip0_33_17">
<rect width="1440" height="4625" fill="white"/>
</clipPath>
</defs>
</svg>
